# Blender v2.79 (sub 0) OBJ File: ''
# www.blender.org
mtllib flower1.mtl
o Flower_d_01_LOD0_Untitled.000
v 0.137612 0.845822 0.002941
v 0.211966 0.875601 -0.165942
v 0.211966 0.883577 -0.164536
v 0.137612 0.853801 0.004347
v 0.025895 0.872523 -0.148489
v 0.025895 0.880502 -0.147082
v -0.114221 0.894006 -0.270315
v -0.114221 0.901982 -0.268909
v -0.154865 0.862324 -0.090648
v -0.154865 0.870302 -0.089242
v -0.315817 0.845822 0.002941
v -0.315817 0.853801 0.004347
v -0.154865 0.829321 0.096527
v -0.154865 0.837297 0.097936
v -0.114221 0.797641 0.276197
v -0.114221 0.805617 0.277603
v 0.025895 0.819121 0.154368
v 0.025895 0.827100 0.155777
v 0.211966 0.816043 0.171821
v 0.211966 0.824022 0.173228
v -0.021397 0.802042 -0.002812
v -0.024066 0.810356 -0.003314
v -0.051237 -0.030272 0.027594
v -0.051237 -0.030271 -0.011363
v 0.005900 -0.030271 -0.011363
v 0.005900 -0.030272 0.027594
v -0.041960 0.802325 0.012850
v -0.003375 0.802325 0.012850
v -0.003375 0.812144 -0.027452
v -0.041960 0.812144 -0.027452
v -0.010309 0.244141 0.001211
v -0.064798 0.244141 0.001211
v -0.015151 0.553563 0.002921
v -0.062552 0.553563 0.002921
v -0.010309 0.244141 -0.035939
v -0.015151 0.572441 -0.028296
v -0.064798 0.244141 -0.035939
v -0.062552 0.572441 -0.028296
vt 0.903755 0.588059
vt 0.903755 0.588429
vt 0.903212 0.588429
vt 0.903212 0.588059
vt 0.567797 0.956375
vt 0.567797 0.956008
vt 0.568180 0.956008
vt 0.568180 0.956375
vt 0.232977 0.633912
vt 0.232977 0.633369
vt 0.234495 0.633523
vt 0.234495 0.634041
vt 0.236207 0.633569
vt 0.236207 0.634019
vt 0.237584 0.633457
vt 0.237584 0.633824
vt 0.451208 0.459547
vt 0.451194 0.459917
vt 0.449667 0.460090
vt 0.449681 0.459738
vt 0.447855 0.459947
vt 0.447971 0.459654
vt 0.446530 0.459887
vt 0.446599 0.459506
vt 0.167695 0.687532
vt 0.167695 0.686989
vt 0.169214 0.686861
vt 0.169214 0.687378
vt 0.171030 0.686882
vt 0.171030 0.687332
vt 0.172357 0.687078
vt 0.172357 0.687444
vt 0.783219 0.276741
vt 0.783205 0.276372
vt 0.784732 0.276565
vt 0.784745 0.276918
vt 0.786442 0.276485
vt 0.786557 0.276777
vt 0.787814 0.276339
vt 0.787882 0.276720
vt 0.734091 0.234867
vt 0.732812 0.234867
vt 0.732812 0.234806
vt 0.734091 0.234806
vt 0.686511 0.335054
vt 0.685123 0.335054
vt 0.685123 0.334994
vt 0.686511 0.334994
vt 0.684077 0.335054
vt 0.684077 0.334994
vt 0.676847 0.613216
vt 0.675486 0.613216
vt 0.675486 0.613155
vt 0.676847 0.613155
vt 0.715477 0.570331
vt 0.714276 0.570331
vt 0.714276 0.570271
vt 0.715477 0.570271
vt 0.715373 0.512058
vt 0.714172 0.512058
vt 0.714172 0.511997
vt 0.715373 0.511997
vt 0.656711 0.657618
vt 0.655349 0.657618
vt 0.655349 0.657558
vt 0.656711 0.657558
vt 0.409916 0.553130
vt 0.408870 0.553130
vt 0.408870 0.553070
vt 0.409916 0.553070
vt 0.407482 0.553130
vt 0.407482 0.553070
vt 0.735371 0.234867
vt 0.735371 0.234806
vt 0.661404 0.259197
vt 0.660139 0.260937
vt 0.660125 0.259751
vt 0.115575 0.628045
vt 0.115575 0.629251
vt 0.114296 0.627490
vt 0.661272 0.260585
vt 0.662195 0.261630
vt 0.116284 0.630226
vt 0.115575 0.631427
vt 0.117645 0.629923
vt 0.114428 0.628878
vt 0.659416 0.261933
vt 0.658055 0.261630
vt 0.658978 0.260585
vt 0.116723 0.628878
vt 0.660834 0.261933
vt 0.113505 0.629923
vt 0.658845 0.259197
vt 0.116855 0.627490
vt 0.114866 0.630226
vt 0.660125 0.263134
vn 0.0000 -1.0000 -0.0000
vn 0.0000 0.9716 0.2367
vn 0.0000 0.0957 0.9954
vn 0.0000 -0.0055 1.0000
vn 0.0000 -0.0399 0.9992
vn 0.9983 0.0590 0.0000
vn 0.9999 0.0148 0.0006
vn 0.9999 0.0147 0.0000
vn 0.9998 0.0155 0.0084
vn 0.9998 0.0156 0.0094
vn 0.9985 -0.0486 -0.0269
vn 0.9984 -0.0489 -0.0296
vn 0.9988 -0.0470 -0.0130
vn 0.9988 -0.0468 -0.0114
vn 0.0000 -0.0892 -0.9960
vn 0.0000 0.0233 -0.9997
vn 0.0000 0.0035 -1.0000
vn -0.9988 -0.0494 0.0000
vn -1.0000 0.0072 0.0003
vn -1.0000 0.0073 0.0000
vn -1.0000 0.0068 0.0038
vn -1.0000 0.0067 0.0041
vn -0.9956 0.0809 0.0464
vn -0.9956 0.0805 0.0487
vn -0.9961 0.0851 0.0230
vn -0.9961 0.0855 0.0208
vn 0.9175 -0.0691 0.3918
vn -0.0948 0.1728 -0.9804
vn 0.6618 0.1301 -0.7383
vn 0.6618 0.1302 -0.7383
vn -0.9761 0.0378 -0.2141
vn -0.9761 0.0377 -0.2142
vn -0.5084 0.1495 -0.8480
vn -0.5084 -0.1495 0.8480
vn -0.5084 -0.1497 0.8480
vn -0.9761 -0.0378 0.2141
vn 0.6618 -0.1302 0.7383
vn 0.6618 -0.1303 0.7382
vn -0.0948 -0.1731 0.9803
vn -0.0948 -0.1728 0.9804
vn 0.9175 0.0690 -0.3918
vn 0.2643 -0.9232 -0.2791
vn -0.2615 0.9243 0.2781
vn 0.0838 -0.9930 0.0827
vn 0.1925 -0.9801 0.0486
vn 0.0820 -0.9931 0.0832
vn -0.0273 -0.9929 0.1161
vn 0.1449 0.9013 0.4082
vn 0.2782 0.9332 0.2275
vn 0.0270 0.9932 -0.1130
vn -0.0444 -0.9494 -0.3110
vn -0.2731 -0.9349 -0.2266
vn -0.0461 -0.9495 -0.3104
vn 0.1890 -0.9066 -0.3773
vn -0.1887 0.9068 0.3769
vn -0.2745 -0.9557 -0.1064
vn -0.1887 0.9811 -0.0440
vn -0.0267 -0.8964 -0.4424
vn 0.0270 0.8947 0.4459
vn 0.2782 0.9547 0.1054
vn -0.1452 -0.9865 0.0758
vn 0.1449 0.9866 -0.0753
vn -0.1423 -0.9036 -0.4040
vn 0.2668 -0.9623 -0.0522
vn -0.2615 0.9636 0.0548
usemtl Stem_Green_01.007
s 1
f 23/1/1 24/2/1 25/3/1
f 25/3/1 26/4/1 23/1/1
f 27/5/2 28/6/2 29/7/2
f 29/7/2 30/8/2 27/5/2
f 23/9/3 26/10/3 31/11/3
f 31/11/3 32/12/3 23/9/3
f 32/12/4 31/11/4 33/13/4
f 33/13/4 34/14/4 32/12/4
f 34/14/5 33/13/5 28/15/5
f 28/15/5 27/16/5 34/14/5
f 26/17/6 25/18/6 35/19/6
f 35/19/6 31/20/6 26/17/6
f 31/20/7 35/19/8 36/21/9
f 36/21/9 33/22/10 31/20/7
f 33/22/11 36/21/12 29/23/13
f 29/23/13 28/24/14 33/22/11
f 25/25/15 24/26/15 37/27/15
f 37/27/15 35/28/15 25/25/15
f 35/28/16 37/27/16 38/29/16
f 38/29/16 36/30/16 35/28/16
f 36/30/17 38/29/17 30/31/17
f 30/31/17 29/32/17 36/30/17
f 24/33/18 23/34/18 32/35/18
f 32/35/18 37/36/18 24/33/18
f 37/36/19 32/35/20 34/37/21
f 34/37/21 38/38/22 37/36/19
f 38/38/23 34/37/24 27/39/25
f 27/39/25 30/40/26 38/38/23
usemtl Petal_Blue_01.002
f 1/41/27 2/42/27 3/43/27
f 3/43/27 4/44/27 1/41/27
f 2/45/28 5/46/28 6/47/28
f 6/47/28 3/48/28 2/45/28
f 5/46/29 7/49/30 8/50/30
f 8/50/30 6/47/29 5/46/29
f 7/51/31 9/52/32 10/53/32
f 10/53/32 8/54/31 7/51/31
f 9/55/33 11/56/33 12/57/33
f 12/57/33 10/58/33 9/55/33
f 11/59/34 13/60/35 14/61/35
f 14/61/35 12/62/34 11/59/34
f 13/63/36 15/64/36 16/65/36
f 16/65/36 14/66/36 13/63/36
f 15/67/37 17/68/38 18/69/38
f 18/69/38 16/70/37 15/67/37
f 17/68/39 19/71/40 20/72/40
f 20/72/40 18/69/39 17/68/39
f 19/73/41 1/41/41 4/44/41
f 4/44/41 20/74/41 19/73/41
f 19/75/42 21/76/42 1/77/42
f 4/78/43 22/79/43 20/80/43
f 17/81/44 15/82/45 21/76/46
f 21/76/46 19/75/47 17/81/44
f 10/83/48 12/84/48 22/79/48
f 8/85/49 10/83/49 22/79/49
f 18/86/50 20/80/50 22/79/50
f 21/76/51 9/87/52 7/88/53
f 7/88/53 5/89/54 21/76/51
f 6/90/55 8/85/55 22/79/55
f 15/82/56 13/91/56 21/76/56
f 16/92/57 18/86/57 22/79/57
f 21/76/58 5/89/58 2/93/58
f 3/94/59 6/90/59 22/79/59
f 14/95/60 16/92/60 22/79/60
f 13/91/61 11/96/61 21/76/61
f 12/84/62 14/95/62 22/79/62
f 11/96/63 9/87/63 21/76/63
f 21/76/64 2/93/64 1/77/64
f 4/78/65 3/94/65 22/79/65
o Flower_d_01_LOD1_Untitled.000
v 0.137612 0.849812 0.003643
v -0.024066 0.814342 -0.002610
v 0.211966 0.820033 0.172526
v 0.025895 0.823111 0.155072
v -0.114221 0.801630 0.276899
v -0.024066 0.814342 -0.002610
v -0.024066 0.814342 -0.002610
v 0.211966 0.820033 0.172526
v 0.025895 0.823111 0.155072
v -0.154865 0.866313 -0.089946
v -0.315817 0.849812 0.003643
v -0.024066 0.814342 -0.002610
v -0.114221 0.897993 -0.269613
v 0.025895 0.823111 0.155072
v 0.211966 0.820033 0.172526
v -0.024066 0.814342 -0.002610
v -0.024066 0.814342 -0.002610
v -0.154865 0.866313 -0.089946
v -0.114221 0.897993 -0.269613
v -0.114221 0.897993 -0.269613
v 0.025895 0.876512 -0.147787
v -0.024066 0.814342 -0.002610
v 0.025895 0.876512 -0.147787
v -0.154865 0.833310 0.097232
v -0.114221 0.801630 0.276899
v 0.025895 0.823111 0.155072
v -0.024066 0.814342 -0.002610
v -0.024066 0.814342 -0.002610
v 0.025895 0.876512 -0.147787
v 0.211966 0.879590 -0.165238
v 0.211966 0.879590 -0.165238
v -0.154865 0.833310 0.097232
v -0.114221 0.801630 0.276899
v -0.024066 0.814342 -0.002610
v -0.154865 0.833310 0.097232
v -0.315817 0.849812 0.003643
v -0.024066 0.814342 -0.002610
v -0.315817 0.849812 0.003643
v -0.154865 0.833310 0.097232
v -0.024066 0.814342 -0.002610
v -0.315817 0.849812 0.003643
v -0.154865 0.866313 -0.089946
v -0.024066 0.814342 -0.002610
v -0.024066 0.814342 -0.002610
v 0.211966 0.879590 -0.165238
v 0.137612 0.849812 0.003643
v 0.137612 0.849812 0.003643
v 0.211966 0.879590 -0.165238
v -0.024066 0.814342 -0.002610
v -0.051237 -0.026285 0.028296
v -0.051237 -0.026284 -0.010661
v 0.005900 -0.026284 -0.010661
v 0.005900 -0.026285 0.028296
v -0.041960 0.806314 0.013554
v -0.003375 0.806314 0.013554
v -0.003375 0.816131 -0.026748
v -0.041960 0.816131 -0.026748
v -0.010309 0.248128 0.001915
v -0.064798 0.248128 0.001915
v -0.015151 0.557552 0.003625
v -0.062552 0.557552 0.003625
v -0.010309 0.248128 -0.035237
v -0.015151 0.576428 -0.027592
v -0.064798 0.248128 -0.035237
v -0.062552 0.576428 -0.027592
vt 0.515734 0.949726
vt 0.515734 0.950096
vt 0.515191 0.950096
vt 0.515191 0.949726
vt 0.693835 0.844873
vt 0.693835 0.844507
vt 0.694218 0.844507
vt 0.694218 0.844873
vt 0.216542 0.657954
vt 0.216542 0.657411
vt 0.218060 0.657565
vt 0.218060 0.658082
vt 0.219772 0.657611
vt 0.219772 0.658061
vt 0.221149 0.657499
vt 0.221149 0.657865
vt 0.118183 0.718235
vt 0.118169 0.718605
vt 0.116643 0.718778
vt 0.116656 0.718426
vt 0.114830 0.718635
vt 0.114946 0.718343
vt 0.113505 0.718575
vt 0.113575 0.718194
vt 0.832056 0.027739
vt 0.832056 0.027197
vt 0.833574 0.027068
vt 0.833574 0.027585
vt 0.835391 0.027089
vt 0.835391 0.027539
vt 0.836717 0.027285
vt 0.836717 0.027651
vt 0.605780 0.308594
vt 0.605766 0.308225
vt 0.607293 0.308418
vt 0.607306 0.308771
vt 0.609003 0.308338
vt 0.609118 0.308631
vt 0.610375 0.308193
vt 0.610444 0.308573
vt 0.152362 0.841503
vt 0.153320 0.842235
vt 0.151145 0.842184
vt 0.747276 0.128314
vt 0.748667 0.128215
vt 0.746876 0.129452
vt 0.720561 0.434905
vt 0.718385 0.434871
vt 0.719596 0.434181
vt 0.743444 0.243415
vt 0.744645 0.244124
vt 0.742468 0.244124
vt 0.743141 0.242054
vt 0.781878 0.308930
vt 0.780694 0.308193
vt 0.782870 0.308244
vt 0.449058 0.603728
vt 0.450056 0.603050
vt 0.451233 0.603796
vt 0.607233 0.480285
vt 0.606010 0.480956
vt 0.605057 0.480216
vt 0.742095 0.242977
vt 0.748082 0.129480
vt 0.528117 0.527776
vt 0.526895 0.528447
vt 0.525942 0.527707
vt 0.781251 0.356624
vt 0.780258 0.357310
vt 0.779075 0.356573
vt 0.740707 0.242844
vt 0.474644 0.519737
vt 0.475822 0.520483
vt 0.473647 0.520415
vt 0.472515 0.589163
vt 0.473715 0.589872
vt 0.471539 0.589872
vt 0.179408 0.829861
vt 0.178207 0.830570
vt 0.177231 0.829861
vt 0.310837 0.713342
vt 0.309636 0.714051
vt 0.308660 0.713342
vt 0.754343 0.370681
vt 0.752167 0.370630
vt 0.753384 0.369949
vt 0.123296 0.853708
vt 0.122107 0.852981
vt 0.124283 0.853015
vn 0.0000 -1.0000 -0.0000
vn 0.0000 0.9716 0.2367
vn 0.0000 0.0957 0.9954
vn 0.0000 -0.0055 1.0000
vn 0.0000 -0.0399 0.9992
vn 0.9983 0.0590 0.0000
vn 0.9999 0.0157 0.0066
vn 0.9999 0.0147 0.0000
vn 0.9999 0.0149 0.0026
vn 0.9998 0.0156 0.0094
vn 0.9984 -0.0489 -0.0296
vn 0.9988 -0.0468 -0.0114
vn 0.0000 -0.0892 -0.9960
vn 0.0000 0.0233 -0.9997
vn 0.0000 0.0035 -1.0000
vn -0.9988 -0.0494 0.0000
vn -1.0000 0.0067 0.0028
vn -1.0000 0.0073 0.0000
vn -1.0000 0.0078 0.0016
vn -1.0000 0.0067 0.0041
vn -0.9956 0.0805 0.0487
vn -0.9961 0.0855 0.0208
vn -0.2165 0.9407 0.2612
vn 0.1562 -0.9877 0.0054
vn -0.0224 -0.9978 0.0626
vn 0.1200 0.9217 0.3688
vn 0.2303 0.9481 0.2193
vn 0.0224 0.9978 -0.0626
vn -0.2303 -0.9481 -0.2193
vn 0.1562 -0.9263 -0.3429
vn -0.1562 0.9263 0.3429
vn -0.2303 -0.9659 -0.1182
vn -0.1562 0.9877 -0.0054
vn -0.0224 -0.9162 -0.4001
vn 0.0224 0.9162 0.4001
vn 0.2303 0.9659 0.1182
vn -0.1200 -0.9923 0.0314
vn 0.1200 0.9923 -0.0314
vn -0.1200 -0.9217 -0.3688
vn 0.2165 -0.9733 -0.0763
vn -0.2165 0.9733 0.0763
usemtl Stem_Green_01.007
s 1
f 88/97/66 89/98/66 90/99/66
f 90/99/66 91/100/66 88/97/66
f 92/101/67 93/102/67 94/103/67
f 94/103/67 95/104/67 92/101/67
f 88/105/68 91/106/68 96/107/68
f 96/107/68 97/108/68 88/105/68
f 97/108/69 96/107/69 98/109/69
f 98/109/69 99/110/69 97/108/69
f 99/110/70 98/109/70 93/111/70
f 93/111/70 92/112/70 99/110/70
f 91/113/71 90/114/71 100/115/71
f 100/115/71 96/116/71 91/113/71
f 96/116/72 100/115/73 101/117/74
f 101/117/74 98/118/75 96/116/72
f 98/118/76 101/117/76 94/119/76
f 94/119/77 93/120/77 98/118/77
f 90/121/78 89/122/78 102/123/78
f 102/123/78 100/124/78 90/121/78
f 100/124/79 102/123/79 103/125/79
f 103/125/79 101/126/79 100/124/79
f 101/126/80 103/125/80 95/127/80
f 95/127/80 94/128/80 101/126/80
f 89/129/81 88/130/81 97/131/81
f 97/131/81 102/132/81 89/129/81
f 102/132/82 97/131/83 99/133/84
f 99/133/84 103/134/85 102/132/82
f 103/134/86 99/133/86 92/135/86
f 92/135/87 95/136/87 103/134/87
usemtl Petal_Blue_01.002
f 39/137/88 40/138/88 41/139/88
f 42/140/89 43/141/89 44/142/89
f 45/143/90 46/144/90 47/145/90
f 48/146/91 49/147/91 50/148/91
f 51/149/92 48/146/92 50/148/92
f 52/150/93 53/151/93 54/152/93
f 55/153/94 56/154/94 57/155/94
f 58/156/95 59/157/95 60/158/95
f 61/159/96 51/149/96 50/148/96
f 43/141/97 62/160/97 44/142/97
f 63/161/98 64/162/98 65/163/98
f 66/164/99 67/165/99 68/166/99
f 69/167/100 61/159/100 50/148/100
f 70/168/101 71/169/101 72/170/101
f 73/171/102 74/172/102 75/173/102
f 76/174/103 77/175/103 78/176/103
f 79/177/104 80/178/104 81/179/104
f 82/180/105 83/181/105 84/182/105
f 85/183/106 86/184/106 87/185/106
o Flower_d_01_LOD2_Untitled.000
v 0.137612 0.849812 0.003643
v -0.024066 0.814342 -0.002612
v 0.211966 0.820033 0.172523
v 0.025895 0.823111 0.155072
v -0.114221 0.801630 0.276899
v -0.024066 0.814342 -0.002612
v -0.024066 0.814342 -0.002612
v 0.211966 0.820033 0.172523
v 0.025895 0.823111 0.155072
v -0.154865 0.866313 -0.089946
v -0.315817 0.849812 0.003643
v -0.024066 0.814342 -0.002612
v -0.114221 0.897993 -0.269613
v 0.025895 0.823111 0.155072
v 0.211966 0.820033 0.172523
v -0.024066 0.814342 -0.002612
v -0.024066 0.814342 -0.002612
v -0.154865 0.866313 -0.089946
v -0.114221 0.897993 -0.269613
v -0.114221 0.897993 -0.269613
v 0.025895 0.876512 -0.147787
v -0.024066 0.814342 -0.002612
v 0.025895 0.876512 -0.147787
v -0.154865 0.833310 0.097232
v -0.114221 0.801630 0.276899
v 0.025895 0.823111 0.155072
v -0.024066 0.814342 -0.002612
v -0.024066 0.814342 -0.002612
v 0.025895 0.876512 -0.147787
v 0.211966 0.879590 -0.165238
v 0.211966 0.879590 -0.165238
v -0.154865 0.833310 0.097232
v -0.114221 0.801630 0.276899
v -0.024066 0.814342 -0.002612
v -0.154865 0.833310 0.097232
v -0.315817 0.849812 0.003643
v -0.024066 0.814342 -0.002612
v -0.315817 0.849812 0.003643
v -0.154865 0.833310 0.097232
v -0.024066 0.814342 -0.002612
v -0.315817 0.849812 0.003643
v -0.154865 0.866313 -0.089946
v -0.024066 0.814342 -0.002612
v -0.024066 0.814342 -0.002612
v 0.211966 0.879590 -0.165238
v 0.137612 0.849812 0.003643
v 0.137612 0.849812 0.003643
v 0.211966 0.879590 -0.165238
v -0.024066 0.814342 -0.002612
v -0.051237 -0.026285 0.028296
v -0.051237 -0.026284 -0.010661
v 0.005900 -0.026284 -0.010661
v 0.005900 -0.026285 0.028296
v -0.041960 0.806314 0.013554
v -0.003375 0.806314 0.013554
v -0.003375 0.816131 -0.026748
v -0.041960 0.816131 -0.026748
v -0.010309 0.248128 0.001915
v -0.064798 0.248128 0.001915
v -0.015151 0.557552 0.003625
v -0.062552 0.557552 0.003625
v -0.010309 0.248128 -0.035237
v -0.015151 0.576428 -0.027592
v -0.064798 0.248128 -0.035237
v -0.062552 0.576428 -0.027592
vt 0.822216 0.519737
vt 0.822216 0.520107
vt 0.821673 0.520107
vt 0.821673 0.519737
vt 0.548975 0.972359
vt 0.548975 0.971992
vt 0.549357 0.971992
vt 0.549357 0.972359
vt 0.151145 0.683920
vt 0.151145 0.683378
vt 0.152663 0.683532
vt 0.152663 0.684049
vt 0.154375 0.683578
vt 0.154375 0.684028
vt 0.155751 0.683466
vt 0.155751 0.683832
vt 0.038231 0.811115
vt 0.038217 0.811485
vt 0.036690 0.811658
vt 0.036704 0.811306
vt 0.034878 0.811514
vt 0.034994 0.811222
vt 0.033553 0.811454
vt 0.033622 0.811074
vt 0.075743 0.738927
vt 0.075743 0.738385
vt 0.077262 0.738256
vt 0.077262 0.738774
vt 0.079078 0.738277
vt 0.079078 0.738728
vt 0.080404 0.738473
vt 0.080404 0.738839
vt 0.544100 0.394054
vt 0.544086 0.393684
vt 0.545613 0.393878
vt 0.545626 0.394230
vt 0.547323 0.393798
vt 0.547438 0.394090
vt 0.548695 0.393652
vt 0.548764 0.394032
vt 0.953321 0.207838
vt 0.954280 0.208570
vt 0.952104 0.208519
vt 0.350710 0.659776
vt 0.352101 0.659676
vt 0.350311 0.660914
vt 0.295918 0.743724
vt 0.293742 0.743690
vt 0.294954 0.743000
vt 0.846694 0.174922
vt 0.847895 0.175631
vt 0.845718 0.175631
vt 0.846391 0.173561
vt 0.034737 0.951987
vt 0.033553 0.951250
vt 0.035729 0.951301
vt 0.482581 0.570949
vt 0.483578 0.570271
vt 0.484756 0.571017
vt 0.864566 0.293550
vt 0.863344 0.294221
vt 0.862391 0.293482
vt 0.845345 0.174484
vt 0.351516 0.660942
vt 0.250493 0.736648
vt 0.249271 0.737319
vt 0.248318 0.736580
vt 0.719598 0.407536
vt 0.718606 0.408222
vt 0.717422 0.407485
vt 0.843957 0.174351
vt 0.438845 0.608159
vt 0.440023 0.608905
vt 0.437847 0.608837
vt 0.398150 0.655275
vt 0.399351 0.655984
vt 0.397174 0.655984
vt 0.462593 0.600138
vt 0.461393 0.600847
vt 0.460417 0.600138
vt 0.611934 0.334994
vt 0.610733 0.335702
vt 0.609757 0.334994
vt 0.863197 0.142399
vt 0.861021 0.142348
vt 0.862238 0.141668
vt 0.066432 0.927084
vt 0.065243 0.926356
vt 0.067419 0.926390
vn 0.0000 -1.0000 -0.0000
vn 0.0000 0.9716 0.2367
vn 0.0000 0.0957 0.9954
vn 0.0000 -0.0055 1.0000
vn 0.0000 -0.0399 0.9992
vn 0.9983 0.0590 0.0000
vn 0.9999 0.0157 0.0066
vn 0.9999 0.0147 0.0000
vn 0.9999 0.0149 0.0026
vn 0.9998 0.0156 0.0094
vn 0.9984 -0.0489 -0.0296
vn 0.9988 -0.0468 -0.0114
vn 0.0000 -0.0892 -0.9960
vn 0.0000 0.0233 -0.9997
vn 0.0000 0.0035 -1.0000
vn -0.9988 -0.0494 0.0000
vn -1.0000 0.0067 0.0028
vn -1.0000 0.0073 0.0000
vn -1.0000 0.0078 0.0016
vn -1.0000 0.0067 0.0041
vn -0.9956 0.0805 0.0487
vn -0.9961 0.0855 0.0208
vn -0.2165 0.9407 0.2612
vn 0.1562 -0.9877 0.0054
vn -0.0224 -0.9978 0.0626
vn 0.1200 0.9217 0.3688
vn 0.2303 0.9481 0.2193
vn 0.0224 0.9978 -0.0626
vn -0.2303 -0.9481 -0.2193
vn 0.1562 -0.9263 -0.3429
vn -0.1562 0.9263 0.3429
vn -0.2303 -0.9659 -0.1182
vn -0.1562 0.9877 -0.0054
vn -0.0224 -0.9162 -0.4001
vn 0.0224 0.9162 0.4001
vn 0.2303 0.9659 0.1182
vn -0.1200 -0.9923 0.0313
vn 0.1200 0.9923 -0.0313
vn -0.1200 -0.9217 -0.3688
vn 0.2165 -0.9733 -0.0763
vn -0.2165 0.9733 0.0763
usemtl Stem_Green_01.007
s 1
f 153/186/107 154/187/107 155/188/107
f 155/188/107 156/189/107 153/186/107
f 157/190/108 158/191/108 159/192/108
f 159/192/108 160/193/108 157/190/108
f 153/194/109 156/195/109 161/196/109
f 161/196/109 162/197/109 153/194/109
f 162/197/110 161/196/110 163/198/110
f 163/198/110 164/199/110 162/197/110
f 164/199/111 163/198/111 158/200/111
f 158/200/111 157/201/111 164/199/111
f 156/202/112 155/203/112 165/204/112
f 165/204/112 161/205/112 156/202/112
f 161/205/113 165/204/114 166/206/115
f 166/206/115 163/207/116 161/205/113
f 163/207/117 166/206/117 159/208/117
f 159/208/118 158/209/118 163/207/118
f 155/210/119 154/211/119 167/212/119
f 167/212/119 165/213/119 155/210/119
f 165/213/120 167/212/120 168/214/120
f 168/214/120 166/215/120 165/213/120
f 166/215/121 168/214/121 160/216/121
f 160/216/121 159/217/121 166/215/121
f 154/218/122 153/219/122 162/220/122
f 162/220/122 167/221/122 154/218/122
f 167/221/123 162/220/124 164/222/125
f 164/222/125 168/223/126 167/221/123
f 168/223/127 164/222/127 157/224/127
f 157/224/128 160/225/128 168/223/128
usemtl Petal_Blue_01.002
f 104/226/129 105/227/129 106/228/129
f 107/229/130 108/230/130 109/231/130
f 110/232/131 111/233/131 112/234/131
f 113/235/132 114/236/132 115/237/132
f 116/238/133 113/235/133 115/237/133
f 117/239/134 118/240/134 119/241/134
f 120/242/135 121/243/135 122/244/135
f 123/245/136 124/246/136 125/247/136
f 126/248/137 116/238/137 115/237/137
f 108/230/138 127/249/138 109/231/138
f 128/250/139 129/251/139 130/252/139
f 131/253/140 132/254/140 133/255/140
f 134/256/141 126/248/141 115/237/141
f 135/257/142 136/258/142 137/259/142
f 138/260/143 139/261/143 140/262/143
f 141/263/144 142/264/144 143/265/144
f 144/266/145 145/267/145 146/268/145
f 147/269/146 148/270/146 149/271/146
f 150/272/147 151/273/147 152/274/147
