# Blender v2.79 (sub 0) OBJ File: ''
# www.blender.org
mtllib tree1.mtl
o trunk1
v -0.276768 0.049778 0.297030
v -0.303408 0.040908 -0.252302
v 0.332660 0.020492 -0.227661
v 0.359300 0.007773 0.321671
v -0.212759 3.103046 0.268759
v -0.070906 3.091284 0.230842
v -0.038070 3.090016 0.108333
v -0.179924 3.099777 0.146250
v 0.026326 1.535044 0.237200
v -0.221078 1.556049 0.266730
v -0.197558 0.813156 0.229557
v 0.196088 0.780374 0.267154
v 0.052242 1.534630 0.023533
v 0.162960 0.783675 -0.072814
v -0.195162 1.549867 0.053063
v -0.230686 0.803675 -0.110410
v -0.060715 2.503564 0.272521
v -0.223345 2.517142 0.273865
v -0.163126 2.337158 0.213789
v 0.005887 2.323021 0.202910
v 0.026252 1.783267 0.194931
v -0.196459 1.802119 0.245562
v -0.059545 2.502337 0.132068
v 0.015322 2.321818 0.056944
v 0.070337 1.782507 0.002590
v -0.222175 2.513305 0.133411
v -0.153691 2.333146 0.067823
v -0.165982 3.135319 -0.991817
v 0.056729 3.113468 -1.052688
v 0.049100 3.143795 -1.321003
v -0.198304 3.135501 -1.254433
v -1.063221 2.841136 0.047851
v -1.029097 2.865644 -0.092603
v -1.223548 2.746803 -0.223128
v -1.255162 2.721917 -0.077163
v -0.152374 1.796613 0.053220
v 0.219508 2.592798 -0.715114
v 0.168134 2.672209 -0.536416
v 0.232344 2.240211 -0.344183
v 0.296726 2.078135 -0.466749
v -0.027896 2.624641 -0.703032
v 0.049322 2.090826 -0.423903
v 0.009633 2.251822 -0.322563
v -0.054577 2.696126 -0.518108
v 1.818052 3.575907 1.674469
v 2.383564 4.017980 1.085544
v 0.809576 4.031533 1.894375
v 2.454231 4.359577 -0.092651
v 1.369327 5.044762 0.789157
v 0.145865 4.205900 1.355306
v 1.887764 4.603942 -0.959543
v 1.075565 4.935307 -0.748064
v 0.183164 4.971583 -0.462663
v -0.171998 4.151067 0.402176
v 1.842404 2.860389 1.189876
v 0.202298 2.990601 1.372462
v 1.632067 2.082182 0.715958
v -0.512118 3.566560 0.105368
v -0.112502 2.615046 0.024758
v 1.304207 2.068292 -0.244013
v 2.792366 3.223543 0.186451
v 1.809171 2.883126 -0.873499
v 2.028920 3.620026 -1.091020
v 0.925293 3.757984 -1.448569
v 1.512480 3.418259 -0.922376
v 1.920230 3.098449 -1.023521
v 1.240419 3.730344 -1.412510
v 2.075675 2.511057 -1.368545
v 1.854565 3.220544 -1.849812
v 1.015235 3.551747 -1.817041
v 1.918337 2.155541 -1.832166
v 1.686211 2.419947 -2.205656
v 1.311194 2.689955 -2.471645
v 0.856553 3.074344 -2.089663
v 1.261046 3.049718 -0.715874
v 0.594978 3.372754 -1.297354
v 0.884532 2.707031 -0.562337
v 0.494506 2.871440 -2.025427
v 0.320125 2.636396 -1.514682
v 0.736484 2.233331 -0.856470
v 1.807104 2.448410 -0.733373
v 1.254308 1.955000 -1.138760
v 1.619600 1.920975 -1.406936
v 1.189688 1.889202 -1.912432
v -0.522500 5.194311 -1.906266
v 0.232540 4.938142 -2.353964
v -1.509536 4.987678 -2.372910
v 0.798461 3.943475 -2.747397
v -0.537096 4.304696 -3.408442
v -1.868670 4.238053 -2.591300
v 0.665569 2.948571 -3.048332
v -0.144166 2.810551 -3.387429
v -1.058013 2.686759 -3.435055
v -1.745510 3.254757 -2.595100
v -0.298038 4.733130 -1.226676
v -1.831700 4.206145 -1.394000
v -0.286848 4.178086 -0.491867
v -1.924038 2.812966 -2.045585
v -1.539404 2.855539 -1.102405
v -0.169457 3.186875 -0.536563
v 0.974488 4.268089 -1.606409
v 0.550869 2.890836 -1.354570
v 0.842161 2.834390 -2.083530
v 0.014899 2.056766 -2.269952
v -1.030143 4.590396 1.266150
v -0.452759 4.137537 1.122926
v -1.415389 5.032316 0.572108
v -0.232646 3.305774 0.634361
v -0.545743 4.310426 -0.047123
v -1.734255 4.779417 -0.000720
v -0.455440 2.802355 -0.022137
v -0.784136 3.176760 -0.551008
v -1.315169 3.559099 -0.927656
v -1.958953 4.103403 -0.386759
v -1.386180 4.068532 1.558562
v -2.329350 4.525958 0.735172
v -1.919334 3.583278 1.775971
v -2.471621 3.816087 -0.295800
v -2.718548 3.483257 0.427429
v -2.128974 2.912508 1.359471
v -0.612948 3.217065 1.533780
v -1.395721 2.518384 0.959743
v -0.878459 2.470202 0.579999
v -1.487225 2.425213 -0.135796
vt 1.000000 0.000000
vt 1.000000 1.000000
vt 0.000000 1.000000
vt 0.000000 0.000000
vt 0.000000 0.000000
vt 1.000000 0.000000
vt 1.000000 1.000000
vt 0.000000 1.000000
vt 1.000000 0.500000
vt 0.000000 0.500000
vt 0.000000 0.250000
vt 1.000000 0.250000
vt 1.000000 0.500000
vt 0.000000 0.500000
vt 0.000000 0.250000
vt 1.000000 0.250000
vt 1.000000 0.500000
vt 0.000000 0.500000
vt 0.000000 0.250000
vt 1.000000 0.250000
vt 1.000000 0.500000
vt 0.000000 0.500000
vt 0.000000 0.250000
vt 1.000000 0.250000
vt 1.000000 0.808750
vt 0.000000 0.808750
vt 0.000000 0.750000
vt 1.000000 0.750000
vt 1.000000 0.578750
vt 0.000000 0.578750
vt 0.000000 0.000000
vt 1.000000 0.000000
vt 1.000000 0.808750
vt 0.000000 0.808750
vt 0.000000 0.750000
vt 1.000000 0.750000
vt 1.000000 0.578750
vt 0.000000 0.578750
vt 1.000000 0.000000
vt 1.000000 0.808750
vt 0.000000 0.808750
vt 0.000000 0.750000
vt 1.000000 0.750000
vt 1.000000 0.578750
vt 0.000000 0.578750
vt 0.000000 0.500000
vt 1.000000 0.500000
vt 0.000000 0.000000
vt 1.000000 0.000000
vt 1.000000 0.808750
vt 0.000000 0.808750
vt 0.000000 0.750000
vt 1.000000 0.750000
vt 1.000000 0.578750
vt 0.000000 0.578750
vt 0.000000 0.000000
vt 1.000000 1.000000
vt 0.000000 1.000000
vt 0.000000 1.000000
vt 1.000000 1.000000
vt 0.000000 1.000000
vt 1.000000 1.000000
vt 0.000000 0.808750
vt 1.000000 0.808750
vt 0.000000 0.750000
vt 1.000000 0.750000
vt 0.000000 0.578750
vt 1.000000 0.578750
vt 0.000000 0.500000
vt 0.000000 0.578750
vt 0.000000 0.578750
vt 0.000000 0.500000
vt 1.000000 0.500000
vt 1.000000 0.500000
vt 1.000000 0.578750
vt 1.000000 0.578750
vt 0.666667 0.999890
vt 0.500000 0.797275
vt 0.833333 0.797275
vt 0.500000 0.594551
vt 0.666667 0.674860
vt 0.833333 0.594551
vt 0.500000 0.391827
vt 0.605594 0.315266
vt 0.727739 0.315266
vt 0.833333 0.391827
vt -0.000000 0.999890
vt -0.166667 0.797275
vt 0.166667 0.797275
vt 1.000000 0.674859
vt 0.000000 0.674859
vt 0.166667 0.594551
vt 0.938927 0.315266
vt -0.061073 0.315266
vt 0.061073 0.315266
vt 0.166667 0.391827
vt 0.333333 0.999890
vt 0.333333 0.674860
vt 0.272260 0.315266
vt 0.394406 0.315266
vt 0.500000 0.066686
vt 0.666667 0.999890
vt 0.500000 0.797275
vt 0.833333 0.797275
vt 0.500000 0.594551
vt 0.666667 0.674860
vt 0.833333 0.594551
vt 0.500000 0.391827
vt 0.605594 0.315266
vt 0.727739 0.315266
vt 0.833333 0.391827
vt -0.000000 0.999890
vt -0.166667 0.797275
vt 0.166667 0.797275
vt 1.000000 0.674859
vt 0.000000 0.674859
vt 0.166667 0.594551
vt 0.938927 0.315266
vt -0.061073 0.315266
vt 0.061073 0.315266
vt 0.166667 0.391827
vt 0.333333 0.999890
vt 0.333333 0.674860
vt 0.272260 0.315266
vt 0.394406 0.315266
vt 0.500000 0.066686
vt 0.666667 0.999890
vt 0.500000 0.797275
vt 0.833333 0.797275
vt 0.500000 0.594551
vt 0.666667 0.674860
vt 0.833333 0.594551
vt 0.500000 0.391827
vt 0.605594 0.315266
vt 0.727739 0.315266
vt 0.833333 0.391827
vt -0.000000 0.999890
vt -0.166667 0.797275
vt 0.166667 0.797275
vt 1.000000 0.674859
vt 0.000000 0.674859
vt 0.166667 0.594551
vt 0.938927 0.315266
vt -0.061073 0.315266
vt 0.061073 0.315266
vt 0.166667 0.391827
vt 0.333333 0.999890
vt 0.333333 0.674860
vt 0.272260 0.315266
vt 0.394406 0.315266
vt 0.500000 0.066686
vt 0.666667 0.999890
vt 0.500000 0.797275
vt 0.833333 0.797275
vt 0.500000 0.594551
vt 0.666667 0.674860
vt 0.833333 0.594551
vt 0.500000 0.391827
vt 0.605594 0.315266
vt 0.727739 0.315266
vt 0.833333 0.391827
vt -0.000000 0.999890
vt -0.166667 0.797275
vt 0.166667 0.797275
vt 1.000000 0.674859
vt 0.000000 0.674859
vt 0.166667 0.594551
vt 0.938927 0.315266
vt -0.061073 0.315266
vt 0.061073 0.315266
vt 0.166667 0.391827
vt 0.333333 0.999890
vt 0.333333 0.674860
vt 0.272260 0.315266
vt 0.394406 0.315266
vt 0.500000 0.066686
vn -0.0490 -0.9988 -0.0011
vn 0.0762 0.9971 0.0019
vn -0.0131 -0.0065 0.9999
vn 0.9829 0.1836 -0.0118
vn 0.0218 0.1720 -0.9849
vn -0.9999 0.0063 0.0128
vn 0.0066 -0.3364 0.9417
vn 0.1765 0.1167 0.9774
vn -0.0547 0.0761 0.9956
vn 0.9349 0.3536 0.0316
vn 0.9854 -0.0141 0.1699
vn 0.9746 0.2153 -0.0616
vn -0.0102 0.3599 -0.9329
vn 0.0434 0.9976 0.0541
vn 0.0668 0.1945 -0.9786
vn -0.5353 0.8444 0.0228
vn -0.9770 0.1263 -0.1721
vn -0.9933 0.0957 0.0648
vn 0.1310 0.0394 0.9906
vn 0.9917 -0.0024 0.1283
vn -0.1280 -0.0023 -0.9918
vn -0.9906 0.0455 -0.1293
vn 0.3880 0.3856 -0.8371
vn -0.3176 -0.9416 -0.1120
vn -0.3641 -0.3687 0.8552
vn 0.3509 0.9296 0.1125
vn 0.1567 0.0200 0.9874
vn 0.9860 0.0599 0.1556
vn -0.1514 0.0553 -0.9869
vn -0.9872 0.0270 -0.1569
vn 0.9560 0.2285 0.1841
vn -0.1388 -0.4613 -0.8763
vn -0.9802 -0.1808 -0.0805
vn 0.1141 0.4160 0.9022
vn 0.9421 0.3307 0.0559
vn 0.9020 -0.0052 0.4318
vn -0.1385 -0.7497 -0.6471
vn -0.1477 -0.6204 -0.7702
vn -0.9709 -0.2345 0.0496
vn -0.9362 0.0916 -0.3393
vn 0.1892 0.7545 0.6284
vn 0.1632 0.5760 0.8010
vn 0.3967 0.5096 0.7635
vn 0.6529 0.7161 0.2468
vn 0.3762 0.5802 0.7224
vn -0.2642 0.7739 0.5756
vn 0.3804 0.9247 0.0121
vn 0.4399 0.8859 -0.1471
vn 0.0168 0.9971 -0.0742
vn -0.4166 0.8408 0.3456
vn -0.7829 0.5790 0.2278
vn -0.0736 -0.5610 0.8246
vn -0.6333 -0.0185 0.7737
vn 0.0600 -0.4752 0.8779
vn 0.0522 -0.5297 0.8466
vn -0.8852 0.3762 0.2736
vn -0.8771 -0.0340 0.4791
vn -0.8665 -0.3903 0.3112
vn -0.3931 -0.8579 0.3309
vn -0.3358 -0.9332 0.1282
vn 0.7920 -0.3236 0.5176
vn 0.7133 -0.4950 0.4962
vn 0.7449 -0.2943 0.5987
vn 0.9374 0.3153 0.1476
vn 0.7309 -0.6387 -0.2404
vn 0.5914 -0.7447 -0.3094
vn 0.7352 -0.3841 -0.5586
vn 0.8685 0.1418 -0.4750
vn 0.8456 0.1881 -0.4996
vn -0.2126 0.0994 -0.9721
vn 0.2506 -0.3421 -0.9056
vn 0.3255 0.4524 -0.8303
vn -0.2412 0.5188 -0.8202
vn -0.3287 -0.4413 -0.8350
vn -0.2279 -0.6851 -0.6919
vn -0.6986 -0.2362 -0.6754
vn -0.7366 0.0937 -0.6698
vn -0.8792 0.4690 0.0839
vn 0.6320 0.7631 0.1351
vn 0.9607 0.2752 -0.0357
vn 0.6617 0.7475 0.0579
vn 0.2962 0.8019 -0.5189
vn 0.8864 0.1696 -0.4308
vn 0.9068 -0.0033 -0.4215
vn 0.6546 0.1878 -0.7323
vn 0.2226 0.6370 -0.7380
vn -0.2264 0.5387 -0.8115
vn -0.4170 0.6439 0.6415
vn -0.4962 0.8619 -0.1044
vn -0.2595 0.6869 0.6788
vn -0.3005 0.6450 0.7026
vn -0.4352 0.5512 -0.7119
vn -0.6929 0.6350 -0.3416
vn -0.9142 0.3815 -0.1366
vn -0.8529 0.1730 0.4926
vn -0.8576 -0.0499 0.5119
vn 0.3981 0.2265 0.8889
vn 0.2276 0.1788 0.9572
vn 0.3810 0.3208 0.8672
vn 0.9205 0.0142 0.3906
vn 0.1482 -0.5547 0.8187
vn -0.0269 -0.6164 0.7870
vn 0.3151 -0.7878 0.5292
vn 0.7557 -0.6010 0.2603
vn 0.7680 -0.6069 0.2047
vn -0.0992 -0.8402 -0.5331
vn -0.0288 -0.9958 0.0871
vn 0.5399 -0.7334 -0.4131
vn 0.1489 -0.5813 -0.8000
vn -0.5361 -0.8274 -0.1676
vn -0.6157 -0.7792 0.1177
vn -0.6871 -0.5419 -0.4840
vn -0.5038 -0.4419 -0.7423
vn -0.3710 0.3960 -0.8400
vn 0.0302 0.8887 -0.4575
vn 0.4856 0.5462 -0.6825
vn 0.0299 0.8471 -0.5306
vn -0.4833 0.4503 -0.7508
vn 0.3423 0.2298 -0.9110
vn 0.4646 0.1098 -0.8787
vn 0.0521 -0.0003 -0.9986
vn -0.5209 0.1814 -0.8341
vn -0.8016 -0.0981 -0.5898
vn -0.4255 0.6773 0.6002
vn -0.9056 0.4224 0.0392
vn -0.3276 0.7880 0.5213
vn -0.3214 0.7532 0.5739
vn -0.9147 -0.1131 -0.3881
vn -0.9982 0.0511 0.0322
vn -0.9178 -0.1167 0.3795
vn -0.5017 0.0774 0.8616
vn -0.3628 -0.0848 0.9280
vn 0.4889 0.7883 0.3735
vn 0.4264 0.7249 0.5411
vn 0.4115 0.8428 0.3470
vn 0.7831 0.5559 -0.2790
vn 0.7599 0.0608 0.6472
vn 0.6633 -0.0678 0.7452
vn 0.9025 -0.2087 0.3768
vn 0.9892 -0.0447 -0.1399
vn 0.9794 -0.0739 -0.1880
vn 0.2290 -0.9609 -0.1556
vn 0.6158 -0.7276 0.3024
vn 0.6546 -0.5802 -0.4846
vn 0.1395 -0.8116 -0.5673
vn 0.0623 -0.9197 0.3877
vn 0.0902 -0.7619 0.6414
vn -0.3393 -0.9233 0.1800
vn -0.3743 -0.9151 -0.1502
vn -0.8268 -0.2757 -0.4903
vn -0.3006 0.6450 0.7026
vn -0.9142 0.3815 -0.1365
usemtl Material_1.000
s off
f 1/1/1 2/2/1 3/3/1 4/4/1
f 5/5/2 6/6/2 7/7/2 8/8/2
f 9/9/3 10/10/3 11/11/3 12/12/3
f 13/13/4 9/14/4 12/15/4 14/16/4
f 15/17/5 13/18/5 14/19/5 16/20/5
f 10/21/6 15/22/6 16/23/6 11/24/6
f 17/25/7 18/26/7 19/27/7 20/28/7
f 21/29/8 22/30/8 10/10/8 9/9/8
f 1/31/9 4/32/9 12/12/9 11/11/9
f 23/33/10 17/34/10 20/35/10 24/36/10
f 25/37/11 21/38/11 9/14/11 13/13/11
f 4/4/12 3/39/12 14/16/12 12/15/12
f 26/40/13 23/41/13 24/42/13 27/43/13
f 28/44/14 29/45/14 30/46/14 31/47/14
f 3/48/15 2/49/15 16/20/15 14/19/15
f 32/50/16 33/51/16 34/52/16 35/53/16
f 22/54/17 36/55/17 15/22/17 10/21/17
f 2/56/18 1/1/18 11/24/18 16/23/18
f 6/57/19 5/58/19 18/26/19 17/25/19
f 7/7/20 6/59/20 17/34/20 23/33/20
f 8/60/21 7/61/21 23/41/21 26/40/21
f 5/62/22 8/8/22 26/63/22 18/64/22
f 26/63/23 27/65/23 34/52/23 33/51/23
f 27/65/24 19/66/24 35/53/24 34/52/24
f 19/66/25 18/64/25 32/50/25 35/53/25
f 18/64/26 26/63/26 33/51/26 32/50/26
f 20/28/27 19/27/27 22/30/27 21/29/27
f 24/36/28 20/35/28 21/38/28 25/37/28
f 27/43/29 24/42/29 25/67/29 36/68/29
f 19/66/30 27/65/30 36/55/30 22/54/30
f 37/69/31 38/70/31 39/71/31 40/72/31
f 41/73/32 37/69/32 40/72/32 42/74/32
f 43/75/33 44/76/33 41/73/33 42/74/33
f 38/70/34 44/76/34 43/75/34 39/71/34
f 37/69/35 30/46/35 29/45/35 38/70/35
f 25/67/36 13/18/36 40/72/36 39/71/36
f 31/47/37 30/46/37 37/69/37 41/73/37
f 13/18/38 15/17/38 42/74/38 40/72/38
f 28/44/39 31/47/39 41/73/39 44/76/39
f 42/74/40 15/17/40 36/68/40 43/75/40
f 29/45/41 28/44/41 44/76/41 38/70/41
f 36/68/42 25/67/42 39/71/42 43/75/42
usemtl Material.001
s 1
f 45/77/43 46/78/43 47/79/43
f 46/78/44 48/80/44 49/81/44
f 46/78/45 49/81/45 47/79/45
f 47/79/46 49/81/46 50/82/46
f 48/80/47 51/83/47 52/84/47
f 48/80/48 52/84/48 49/81/48
f 49/81/49 52/84/49 53/85/49
f 49/81/50 53/85/50 50/82/50
f 50/82/51 53/85/51 54/86/51
f 45/87/52 47/88/52 55/89/52
f 47/79/53 50/82/53 56/90/53
f 47/88/54 56/91/54 55/89/54
f 55/89/55 56/91/55 57/92/55
f 50/82/56 54/86/56 58/93/56
f 50/82/57 58/93/57 56/90/57
f 56/91/58 58/94/58 59/95/58
f 56/91/59 59/95/59 57/92/59
f 57/92/60 59/95/60 60/96/60
f 45/97/61 55/89/61 46/78/61
f 55/89/62 57/92/62 61/98/62
f 55/89/63 61/98/63 46/78/63
f 46/78/64 61/98/64 48/80/64
f 57/92/65 60/96/65 62/99/65
f 57/92/66 62/99/66 61/98/66
f 61/98/67 62/99/67 63/100/67
f 61/98/68 63/100/68 48/80/68
f 48/80/69 63/100/69 51/83/69
f 51/83/70 63/100/70 52/84/70
f 63/100/71 62/99/71 64/101/71
f 63/100/72 64/101/72 52/84/72
f 52/84/73 64/101/73 53/85/73
f 62/99/74 60/96/74 59/95/74
f 62/99/75 59/95/75 64/101/75
f 64/101/76 59/95/76 58/94/76
f 64/101/77 58/93/77 53/85/77
f 53/85/78 58/93/78 54/86/78
f 65/102/79 66/103/79 67/104/79
f 66/103/80 68/105/80 69/106/80
f 66/103/81 69/106/81 67/104/81
f 67/104/82 69/106/82 70/107/82
f 68/105/83 71/108/83 72/109/83
f 68/105/84 72/109/84 69/106/84
f 69/106/85 72/109/85 73/110/85
f 69/106/86 73/110/86 70/107/86
f 70/107/87 73/110/87 74/111/87
f 65/112/88 67/113/88 75/114/88
f 67/104/89 70/107/89 76/115/89
f 67/113/90 76/116/90 75/114/90
f 75/114/91 76/116/91 77/117/91
f 70/107/92 74/111/92 78/118/92
f 70/107/93 78/118/93 76/115/93
f 76/116/94 78/119/94 79/120/94
f 76/116/95 79/120/95 77/117/95
f 77/117/96 79/120/96 80/121/96
f 65/122/97 75/114/97 66/103/97
f 75/114/98 77/117/98 81/123/98
f 75/114/99 81/123/99 66/103/99
f 66/103/100 81/123/100 68/105/100
f 77/117/101 80/121/101 82/124/101
f 77/117/102 82/124/102 81/123/102
f 81/123/103 82/124/103 83/125/103
f 81/123/104 83/125/104 68/105/104
f 68/105/105 83/125/105 71/108/105
f 71/108/106 83/125/106 72/109/106
f 83/125/107 82/124/107 84/126/107
f 83/125/108 84/126/108 72/109/108
f 72/109/109 84/126/109 73/110/109
f 82/124/110 80/121/110 79/120/110
f 82/124/111 79/120/111 84/126/111
f 84/126/112 79/120/112 78/119/112
f 84/126/113 78/118/113 73/110/113
f 73/110/114 78/118/114 74/111/114
f 85/127/115 86/128/115 87/129/115
f 86/128/116 88/130/116 89/131/116
f 86/128/117 89/131/117 87/129/117
f 87/129/118 89/131/118 90/132/118
f 88/130/119 91/133/119 92/134/119
f 88/130/120 92/134/120 89/131/120
f 89/131/121 92/134/121 93/135/121
f 89/131/122 93/135/122 90/132/122
f 90/132/123 93/135/123 94/136/123
f 85/137/124 87/138/124 95/139/124
f 87/129/125 90/132/125 96/140/125
f 87/138/126 96/141/126 95/139/126
f 95/139/127 96/141/127 97/142/127
f 90/132/128 94/136/128 98/143/128
f 90/132/129 98/143/129 96/140/129
f 96/141/130 98/144/130 99/145/130
f 96/141/131 99/145/131 97/142/131
f 97/142/132 99/145/132 100/146/132
f 85/147/133 95/139/133 86/128/133
f 95/139/134 97/142/134 101/148/134
f 95/139/135 101/148/135 86/128/135
f 86/128/136 101/148/136 88/130/136
f 97/142/137 100/146/137 102/149/137
f 97/142/138 102/149/138 101/148/138
f 101/148/139 102/149/139 103/150/139
f 101/148/140 103/150/140 88/130/140
f 88/130/141 103/150/141 91/133/141
f 91/133/142 103/150/142 92/134/142
f 103/150/143 102/149/143 104/151/143
f 103/150/144 104/151/144 92/134/144
f 92/134/145 104/151/145 93/135/145
f 102/149/146 100/146/146 99/145/146
f 102/149/147 99/145/147 104/151/147
f 104/151/148 99/145/148 98/144/148
f 104/151/149 98/143/149 93/135/149
f 93/135/150 98/143/150 94/136/150
f 105/152/79 106/153/79 107/154/79
f 106/153/80 108/155/80 109/156/80
f 106/153/81 109/156/81 107/154/81
f 107/154/82 109/156/82 110/157/82
f 108/155/83 111/158/83 112/159/83
f 108/155/84 112/159/84 109/156/84
f 109/156/85 112/159/85 113/160/85
f 109/156/86 113/160/86 110/157/86
f 110/157/87 113/160/87 114/161/87
f 105/162/88 107/163/88 115/164/88
f 107/154/89 110/157/89 116/165/89
f 107/163/90 116/166/90 115/164/90
f 115/164/151 116/166/151 117/167/151
f 110/157/92 114/161/92 118/168/92
f 110/157/93 118/168/93 116/165/93
f 116/166/152 118/169/152 119/170/152
f 116/166/95 119/170/95 117/167/95
f 117/167/96 119/170/96 120/171/96
f 105/172/97 115/164/97 106/153/97
f 115/164/98 117/167/98 121/173/98
f 115/164/99 121/173/99 106/153/99
f 106/153/100 121/173/100 108/155/100
f 117/167/101 120/171/101 122/174/101
f 117/167/102 122/174/102 121/173/102
f 121/173/103 122/174/103 123/175/103
f 121/173/104 123/175/104 108/155/104
f 108/155/105 123/175/105 111/158/105
f 111/158/106 123/175/106 112/159/106
f 123/175/107 122/174/107 124/176/107
f 123/175/108 124/176/108 112/159/108
f 112/159/109 124/176/109 113/160/109
f 122/174/110 120/171/110 119/170/110
f 122/174/111 119/170/111 124/176/111
f 124/176/112 119/170/112 118/169/112
f 124/176/113 118/168/113 113/160/113
f 113/160/114 118/168/114 114/161/114
