# Blender v2.79 (sub 0) OBJ File: ''
# www.blender.org
mtllib tree2.mtl
o trunk4.001
v -0.056521 0.027979 0.154965
v -0.100438 0.012407 -0.240769
v 0.357184 -0.024536 -0.196511
v 0.402934 -0.041862 0.198697
v 0.036319 3.001607 0.087266
v 0.132310 2.994730 0.082150
v 0.135978 2.988019 0.000044
v 0.039871 2.994606 0.005046
v 0.095477 1.464561 0.214866
v -0.082825 1.493218 0.194378
v -0.047686 0.767039 0.149786
v 0.231847 0.717370 0.219579
v 0.075647 1.459578 0.063844
v 0.165042 0.719447 -0.015508
v -0.099388 1.483090 0.038988
v -0.108801 0.753689 -0.090801
v -0.217086 2.246482 0.364131
v -0.042767 2.215477 0.294903
v -0.095809 2.066071 0.372364
v -0.231495 2.090541 0.385265
v 0.022764 2.205966 0.131633
v -0.089468 2.059161 0.249971
v -0.158783 2.233840 0.208968
v -0.228287 2.080688 0.267692
v 0.266844 3.052758 1.398132
v 0.167122 3.140974 1.424721
v 0.118048 3.032562 1.396788
v 0.227695 2.934361 1.387468
v 0.171064 2.920007 1.159835
v 0.192277 3.062706 1.152728
v -0.092803 2.370098 0.422137
v -0.148711 2.219861 0.536798
v -0.015333 2.184968 0.492620
v 0.305874 2.828095 1.159266
v 0.022736 2.338092 0.359255
v 0.314548 2.984974 1.131078
v 0.682063 2.394410 -0.317466
v 0.706396 2.402392 0.343277
v 0.224310 2.584949 0.263902
v 0.080856 2.685766 -0.208508
v 1.274350 2.624315 -0.189206
v 1.176957 2.511093 0.272300
v 0.662778 2.880251 -0.738345
v 0.185922 2.959861 -0.588324
v 1.138570 2.911136 -0.568207
v 0.619917 3.768586 0.391896
v 0.044369 3.563348 0.231844
v 0.199425 3.284556 0.617278
v 0.677383 3.288495 0.797381
v 1.237862 3.504700 0.245134
v 1.152073 3.212925 0.620902
v 0.640692 3.766354 -0.284240
v 0.166337 3.659468 -0.234948
v 1.118984 3.612968 -0.219605
v 0.706688 2.776913 0.731308
v 0.143930 2.910423 0.502190
v 1.249148 2.830336 0.505395
v 1.438420 3.078180 0.012551
v 1.212687 3.297563 -0.468268
v 0.671942 3.396742 -0.684616
v 0.107469 3.346839 -0.485840
v -0.106794 3.129875 -0.001681
v -0.071655 2.772163 1.313910
v -0.001349 2.954302 1.914848
v -0.301545 3.289282 1.768191
v -0.446024 3.246737 1.300661
v 0.581322 2.685185 1.339411
v 0.470023 2.835767 1.823169
v 0.082169 2.979415 0.714714
v -0.295751 3.280346 0.829295
v 0.554743 2.811926 0.858890
v 0.709976 3.995387 1.408097
v 0.048916 4.123822 1.331836
v 0.186916 4.005621 1.823506
v 0.661463 3.807371 2.008837
v 1.084621 3.436457 1.367543
v 0.951542 3.448022 1.867366
v 0.514284 3.776283 0.773315
v 0.047595 3.961083 0.868170
v 0.904743 3.425707 0.885143
v 0.352782 3.394833 2.142912
v -0.097216 3.701715 1.847934
v 0.752916 3.116132 1.926610
v 0.992036 2.958991 1.340375
v 0.802629 3.072763 0.790657
v 0.293695 3.380003 0.554354
v -0.198036 3.660780 0.770367
v -0.339765 3.775021 1.277845
v -0.391870 2.341297 -0.207294
v -0.379349 2.356983 0.721086
v -1.057564 2.293082 0.661307
v -1.256537 2.360290 0.047131
v 0.456574 2.724010 -0.036317
v 0.309842 2.603833 0.637723
v -0.412624 3.086169 -0.811265
v -1.102494 2.953178 -0.505087
v 0.264913 3.133046 -0.589700
v -0.502004 4.379608 0.669682
v -1.329885 3.739005 0.423882
v -1.086221 3.362871 1.027873
v -0.381388 3.656615 1.313401
v 0.383226 3.971572 0.621693
v 0.281185 3.601241 1.159510
v -0.488092 4.385800 -0.218950
v -1.163705 4.022966 -0.138521
v 0.203702 4.130455 -0.067915
v -0.385498 2.917049 1.260409
v -1.172956 2.757944 0.939967
v 0.413446 3.056576 0.996790
v 0.683960 3.331841 0.288987
v 0.364715 3.667442 -0.428658
v -0.400829 3.843315 -0.754916
v -1.221688 3.517528 -0.416133
v -1.534003 2.957910 0.231166
vt 1.000000 0.000000
vt 1.000000 1.000000
vt 0.000000 1.000000
vt 0.000000 0.000000
vt 0.000000 0.000000
vt 1.000000 0.000000
vt 1.000000 1.000000
vt 0.000000 1.000000
vt 1.000000 0.500000
vt 0.000000 0.500000
vt 0.000000 0.250000
vt 1.000000 0.250000
vt 1.000000 0.500000
vt 0.000000 0.500000
vt 0.000000 0.250000
vt 1.000000 0.250000
vt 1.000000 0.500000
vt 0.000000 0.500000
vt 0.000000 0.250000
vt 1.000000 0.250000
vt 1.000000 0.500000
vt 0.000000 0.500000
vt 0.000000 0.250000
vt 1.000000 0.250000
vt 1.000000 1.000000
vt 0.000000 1.000000
vt 0.000000 0.750000
vt 1.000000 0.750000
vt 1.000000 0.683750
vt 0.000000 0.683750
vt 0.000000 0.000000
vt 1.000000 0.000000
vt 0.000000 1.000000
vt 0.000000 0.750000
vt 1.000000 0.750000
vt 1.000000 0.683750
vt 0.000000 0.683750
vt 1.000000 0.000000
vt 1.000000 1.000000
vt 0.000000 1.000000
vt 0.000000 0.750000
vt 1.000000 0.750000
vt 1.000000 0.683750
vt 0.000000 0.683750
vt 0.000000 0.000000
vt 1.000000 0.000000
vt 1.000000 1.000000
vt 0.000000 0.750000
vt 1.000000 0.750000
vt 1.000000 0.683750
vt 0.000000 0.683750
vt 0.000000 0.000000
vt 1.000000 0.750000
vt 0.000000 0.750000
vt 0.000000 0.683750
vt 1.000000 0.683750
vt 0.000000 0.683750
vt 0.000000 0.750000
vt 0.000000 0.750000
vt 0.000000 0.683750
vt 1.000000 0.683750
vt 1.000000 0.683750
vt 1.000000 0.750000
vt 1.000000 0.750000
vt 0.500000 0.500000
vt 0.500000 0.000000
vt 1.000000 0.000000
vt 1.000000 0.500000
vt 0.000000 0.500000
vt 0.000000 0.000000
vt 0.500000 1.000000
vt 1.000000 1.000000
vt 0.000000 1.000000
vt 0.500000 0.500000
vt 0.000000 0.500000
vt 0.000000 0.000000
vt 0.500000 0.000000
vt 1.000000 0.500000
vt 1.000000 0.000000
vt 0.500000 1.000000
vt 0.000000 1.000000
vt 1.000000 1.000000
vt 0.500000 0.500000
vt 0.000000 0.500000
vt 0.000000 0.000000
vt 1.000000 0.500000
vt 1.000000 0.000000
vt 0.500000 1.000000
vt 0.000000 1.000000
vt 1.000000 1.000000
vt 0.500000 0.500000
vt 0.000000 0.500000
vt 0.500000 0.000000
vt 1.000000 0.500000
vt 1.000000 0.000000
vt 0.500000 1.000000
vt 0.000000 1.000000
vt 0.500000 0.500000
vt 0.000000 0.500000
vt 0.000000 0.000000
vt 0.500000 0.000000
vt 1.000000 0.500000
vt 1.000000 0.000000
vt 0.000000 1.000000
vt 1.000000 1.000000
vt 0.500000 0.500000
vt 0.000000 0.500000
vt 0.000000 0.000000
vt 0.500000 0.000000
vt 1.000000 0.500000
vt 0.500000 1.000000
vt 1.000000 1.000000
vt 0.500000 0.500000
vt 0.500000 0.000000
vt 1.000000 0.000000
vt 1.000000 0.500000
vt 0.000000 0.500000
vt 0.000000 0.000000
vt 0.500000 1.000000
vt 1.000000 1.000000
vt 0.000000 1.000000
vt 0.500000 0.500000
vt 0.000000 0.500000
vt 0.000000 0.000000
vt 0.500000 0.000000
vt 1.000000 0.500000
vt 1.000000 0.000000
vt 0.500000 1.000000
vt 0.000000 1.000000
vt 1.000000 1.000000
vt 0.500000 0.500000
vt 0.000000 0.500000
vt 0.000000 0.000000
vt 1.000000 0.500000
vt 1.000000 0.000000
vt 0.500000 1.000000
vt 0.000000 1.000000
vt 1.000000 1.000000
vt 0.500000 0.500000
vt 0.000000 0.500000
vt 0.500000 0.000000
vt 1.000000 0.500000
vt 1.000000 0.000000
vt 0.500000 1.000000
vt 0.000000 1.000000
vt 0.500000 0.500000
vt 0.000000 0.500000
vt 0.000000 0.000000
vt 0.500000 0.000000
vt 1.000000 0.500000
vt 1.000000 0.000000
vt 0.000000 1.000000
vt 1.000000 1.000000
vt 0.500000 0.500000
vt 0.000000 0.500000
vt 0.000000 0.000000
vt 0.500000 0.000000
vt 1.000000 0.500000
vt 0.500000 1.000000
vt 1.000000 1.000000
vt 0.500000 0.500000
vt 0.500000 0.000000
vt 1.000000 0.000000
vt 1.000000 0.500000
vt 0.000000 0.500000
vt 0.000000 0.000000
vt 0.500000 1.000000
vt 1.000000 1.000000
vt 0.000000 1.000000
vt 0.500000 0.500000
vt 0.000000 0.500000
vt 0.000000 0.000000
vt 0.500000 0.000000
vt 1.000000 0.500000
vt 1.000000 0.000000
vt 0.500000 1.000000
vt 0.000000 1.000000
vt 1.000000 1.000000
vt 0.500000 0.500000
vt 0.000000 0.500000
vt 0.000000 0.000000
vt 1.000000 0.500000
vt 1.000000 0.000000
vt 0.500000 1.000000
vt 0.000000 1.000000
vt 1.000000 1.000000
vt 0.500000 0.500000
vt 0.000000 0.500000
vt 0.500000 0.000000
vt 1.000000 0.500000
vt 1.000000 0.000000
vt 0.500000 1.000000
vt 0.000000 1.000000
vt 0.500000 0.500000
vt 0.000000 0.500000
vt 0.000000 0.000000
vt 0.500000 0.000000
vt 1.000000 0.500000
vt 1.000000 0.000000
vt 0.000000 1.000000
vt 1.000000 1.000000
vt 0.500000 0.500000
vt 0.000000 0.500000
vt 0.000000 0.000000
vt 0.500000 0.000000
vt 1.000000 0.500000
vt 0.500000 1.000000
vt 1.000000 1.000000
vn -0.1167 -0.9931 0.0110
vn 0.0655 0.9946 -0.0801
vn -0.2014 -0.0499 0.9782
vn 0.9634 0.1571 -0.2173
vn 0.2336 0.1495 -0.9608
vn -0.9800 -0.0406 0.1947
vn 0.2871 0.2175 0.9329
vn -0.0733 -0.2974 0.9519
vn -0.1561 -0.0273 0.9874
vn 0.9540 -0.1151 0.2767
vn 0.9521 0.2997 -0.0600
vn 0.9539 0.2523 -0.1626
vn -0.2978 -0.1450 -0.9436
vn 0.0704 0.3420 -0.9371
vn 0.1791 0.2370 -0.9549
vn -0.9443 0.1984 -0.2625
vn -0.9667 -0.2475 0.0654
vn -0.9864 -0.0157 0.1635
vn 0.0146 -0.1733 0.9848
vn 0.9065 -0.3420 0.2477
vn -0.3151 -0.3336 -0.8885
vn -0.9524 0.1988 -0.2312
vn -0.9474 0.2980 0.1168
vn -0.1759 -0.6368 0.7507
vn 0.9518 -0.2419 -0.1887
vn 0.0923 0.7254 -0.6821
vn -0.9275 0.2801 -0.2475
vn -0.8440 0.3672 0.3908
vn -0.5968 -0.7777 0.1975
vn -0.0175 -0.7330 0.6800
vn 0.9454 -0.1457 0.2915
vn 0.8974 -0.4000 -0.1862
vn 0.5728 0.8074 -0.1413
vn -0.2343 0.5714 -0.7865
vn -0.0288 -0.9122 -0.4087
vn -0.0224 -0.9993 -0.0306
vn -0.4022 -0.9154 -0.0166
vn -0.4309 -0.8151 -0.3873
vn 0.3634 -0.8565 -0.3665
vn 0.1927 -0.9616 -0.1952
vn -0.0612 -0.6774 -0.7331
vn -0.3136 -0.7267 -0.6112
vn 0.3483 -0.6401 -0.6848
vn 0.0086 0.9039 0.4277
vn -0.3624 0.8696 0.3354
vn -0.3501 0.6278 0.6952
vn 0.0929 0.6662 0.7400
vn 0.4195 0.8164 0.3968
vn 0.3436 0.7021 0.6236
vn 0.0156 0.9994 0.0303
vn -0.2030 0.9682 0.1463
vn 0.3598 0.9313 0.0567
vn -0.0153 -0.4446 0.8956
vn -0.4070 -0.3973 0.8225
vn -0.3937 -0.6332 0.6664
vn -0.0182 -0.7019 0.7120
vn 0.3552 -0.4438 0.8227
vn 0.2538 -0.6072 0.7529
vn -0.0583 -0.1501 0.9869
vn -0.3415 -0.2297 0.9114
vn 0.3664 -0.1414 0.9196
vn 0.9986 0.0487 -0.0203
vn 0.9516 -0.0919 0.2932
vn 0.9221 -0.3586 0.1453
vn 0.9525 -0.2507 -0.1728
vn 0.9259 0.1711 -0.3369
vn 0.9190 -0.0762 -0.3869
vn 0.9317 0.3302 0.1510
vn 0.9361 0.1401 0.3225
vn 0.8767 0.4507 -0.1681
vn 0.0409 0.4405 -0.8968
vn 0.3827 0.4331 -0.8161
vn 0.3642 0.1289 -0.9223
vn 0.0164 0.1205 -0.9926
vn -0.3172 0.4193 -0.8506
vn -0.2643 0.1965 -0.9442
vn 0.0467 0.7234 -0.6888
vn 0.3015 0.6439 -0.7032
vn -0.2709 0.6668 -0.6942
vn -0.9994 -0.0330 0.0047
vn -0.9338 0.1489 -0.3254
vn -0.9017 -0.1294 -0.4125
vn -0.9386 -0.3318 -0.0943
vn -0.9158 -0.2133 0.3404
vn -0.9084 -0.3687 0.1972
vn -0.9606 0.2397 0.1410
vn -0.9312 0.3181 -0.1778
vn -0.8993 0.0359 0.4359
vn -0.5065 -0.8617 -0.0309
vn -0.4961 -0.8172 0.2933
vn -0.7649 -0.5822 0.2757
vn -0.7639 -0.6447 -0.0286
vn -0.1429 -0.9897 0.0092
vn -0.1897 -0.9490 0.2518
vn -0.4646 -0.8068 -0.3650
vn -0.6485 -0.7162 -0.2578
vn -0.1639 -0.9373 -0.3076
vn 0.5511 0.8332 -0.0466
vn 0.2228 0.9656 -0.1342
vn 0.2127 0.9460 0.2446
vn 0.5973 0.7536 0.2745
vn 0.8235 0.5647 -0.0533
vn 0.7994 0.5667 0.1997
vn 0.4632 0.7920 -0.3976
vn 0.2926 0.9020 -0.3174
vn 0.7273 0.5822 -0.3634
vn -0.0552 -0.0275 0.9981
vn -0.3845 0.2341 0.8930
vn -0.4986 0.0136 0.8667
vn -0.2461 -0.2623 0.9331
vn 0.2676 -0.2900 0.9188
vn 0.0738 -0.4098 0.9092
vn 0.0934 0.2096 0.9733
vn -0.2375 0.2964 0.9251
vn 0.4215 -0.0560 0.9051
vn 0.8361 -0.5481 0.0212
vn 0.7447 -0.5446 0.3858
vn 0.5414 -0.7417 0.3960
vn 0.5794 -0.8139 0.0435
vn 0.8030 -0.4915 -0.3371
vn 0.6770 -0.7016 -0.2225
vn 0.9689 -0.2455 0.0306
vn 0.8516 -0.4672 0.2376
vn 0.9226 -0.1668 -0.3479
vn 0.0337 0.0313 -0.9989
vn 0.3252 -0.1282 -0.9369
vn 0.1545 -0.4107 -0.8986
vn -0.1469 -0.2767 -0.9497
vn -0.2810 0.1836 -0.9420
vn -0.3332 -0.0602 -0.9409
vn 0.2421 0.3407 -0.9085
vn 0.3823 0.1342 -0.9142
vn -0.0827 0.4462 -0.8911
vn -0.8684 0.4955 0.0171
vn -0.8406 0.4445 -0.3095
vn -0.9373 0.1847 -0.2957
vn -0.9700 0.2403 0.0369
vn -0.7864 0.5021 0.3599
vn -0.8878 0.3937 0.2385
vn -0.6861 0.7230 0.0801
vn -0.7154 0.6599 -0.2296
vn -0.6596 0.6614 0.3571
vn 0.1349 -0.8827 -0.4502
vn 0.2379 -0.9713 -0.0085
vn 0.0232 -0.9990 -0.0378
vn -0.1364 -0.9006 -0.4126
vn 0.4212 -0.8393 -0.3438
vn 0.3252 -0.9407 -0.0969
vn 0.0540 -0.6317 -0.7734
vn -0.2065 -0.6376 -0.7422
vn 0.3550 -0.6287 -0.6919
vn -0.1385 0.9071 0.3976
vn -0.5926 0.7102 0.3800
vn -0.5533 0.5411 0.6333
vn -0.1012 0.6812 0.7251
vn 0.3616 0.8334 0.4180
vn 0.2009 0.7886 0.5811
vn -0.1343 0.9890 0.0615
vn -0.4219 0.8534 0.3062
vn 0.3855 0.9209 0.0578
vn 0.0225 -0.3758 0.9264
vn -0.2843 -0.3608 0.8882
vn -0.1182 -0.6185 0.7768
vn 0.1528 -0.6806 0.7166
vn 0.3429 -0.4355 0.8323
vn 0.3124 -0.6332 0.7082
vn -0.0364 -0.0749 0.9965
vn -0.3428 -0.0868 0.9354
vn 0.2859 -0.1388 0.9482
vn 0.9993 0.0376 -0.0046
vn 0.9512 -0.0787 0.2983
vn 0.9072 -0.3860 0.1675
vn 0.9538 -0.2476 -0.1703
vn 0.9327 0.1877 -0.3080
vn 0.9279 -0.0625 -0.3676
vn 0.9324 0.3356 0.1344
vn 0.9485 0.1464 0.2808
vn 0.8756 0.4585 -0.1521
vn -0.0004 0.4309 -0.9024
vn 0.4268 0.4326 -0.7942
vn 0.3701 0.1330 -0.9194
vn -0.0862 0.0715 -0.9937
vn -0.4563 0.2485 -0.8544
vn -0.4140 0.0558 -0.9086
vn -0.0095 0.6951 -0.7188
vn 0.3828 0.6469 -0.6595
vn -0.4563 0.5257 -0.7180
vn -0.9939 -0.1103 -0.0020
vn -0.9400 0.1193 -0.3196
vn -0.8527 -0.1553 -0.4988
vn -0.9223 -0.3812 -0.0645
vn -0.9046 -0.1836 0.3848
vn -0.8944 -0.3714 0.2491
vn -0.9735 0.2139 0.0803
vn -0.9615 0.2085 -0.1788
vn -0.8873 0.0917 0.4521
usemtl Material_1.001
s off
f 1/1/1 2/2/1 3/3/1 4/4/1
f 5/5/2 6/6/2 7/7/2 8/8/2
f 9/9/3 10/10/3 11/11/3 12/12/3
f 13/13/4 9/14/4 12/15/4 14/16/4
f 15/17/5 13/18/5 14/19/5 16/20/5
f 10/21/6 15/22/6 16/23/6 11/24/6
f 6/25/7 5/26/7 17/27/7 18/28/7
f 19/29/8 20/30/8 10/10/8 9/9/8
f 1/31/9 4/32/9 12/12/9 11/11/9
f 7/7/10 6/33/10 18/34/10 21/35/10
f 13/13/11 22/36/11 19/37/11 9/14/11
f 4/4/12 3/38/12 14/16/12 12/15/12
f 8/39/13 7/40/13 21/41/13 23/42/13
f 15/17/14 24/43/14 22/44/14 13/18/14
f 3/45/15 2/46/15 16/20/15 14/19/15
f 5/47/16 8/8/16 23/48/16 17/49/16
f 10/21/17 20/50/17 24/51/17 15/22/17
f 2/52/18 1/1/18 11/24/18 16/23/18
f 25/53/19 26/54/19 27/55/19 28/56/19
f 22/36/20 21/35/20 18/34/20 19/37/20
f 24/43/21 23/42/21 21/41/21 22/44/21
f 20/50/22 17/49/22 23/48/22 24/51/22
f 29/57/23 30/58/23 31/59/23 32/60/23
f 33/61/24 34/62/24 29/57/24 32/60/24
f 35/63/25 36/64/25 34/62/25 33/61/25
f 31/59/26 30/58/26 36/64/26 35/63/26
f 27/55/27 26/54/27 30/58/27 29/57/27
f 17/27/28 20/30/28 32/60/28 31/59/28
f 34/62/29 28/56/29 27/55/29 29/57/29
f 32/60/30 20/30/30 19/29/30 33/61/30
f 36/64/31 25/53/31 28/56/31 34/62/31
f 33/61/32 19/29/32 18/28/32 35/63/32
f 30/58/33 26/54/33 25/53/33 36/64/33
f 35/63/34 18/28/34 17/27/34 31/59/34
usemtl Material.005
s 1
f 37/65/35 38/66/36 39/67/37 40/68/38
f 41/69/39 42/70/40 38/66/36 37/65/35
f 43/71/41 37/65/35 40/68/38 44/72/42
f 45/73/43 41/69/39 37/65/35 43/71/41
f 46/74/44 47/75/45 48/76/46 49/77/47
f 50/78/48 46/74/44 49/77/47 51/79/49
f 52/80/50 53/81/51 47/75/45 46/74/44
f 54/82/52 52/80/50 46/74/44 50/78/48
f 55/83/53 56/84/54 39/85/55 38/66/56
f 57/86/57 55/83/53 38/66/56 42/87/58
f 49/88/59 48/89/60 56/84/54 55/83/53
f 51/90/61 49/88/59 55/83/53 57/86/57
f 58/91/62 57/92/63 42/70/64 41/93/65
f 59/94/66 58/91/62 41/93/65 45/95/67
f 50/96/68 51/97/69 57/92/63 58/91/62
f 54/82/70 50/96/68 58/91/62 59/94/66
f 60/98/71 59/99/72 45/100/73 43/101/74
f 61/102/75 60/98/71 43/101/74 44/103/76
f 52/80/77 54/104/78 59/99/72 60/98/71
f 53/105/79 52/80/77 60/98/71 61/102/75
f 62/106/80 61/107/81 44/108/82 40/109/83
f 56/110/84 62/106/80 40/109/83 39/67/85
f 47/111/86 53/81/87 61/107/81 62/106/80
f 48/112/88 47/111/86 62/106/80 56/110/84
f 63/113/89 64/114/90 65/115/91 66/116/92
f 67/117/93 68/118/94 64/114/90 63/113/89
f 69/119/95 63/113/89 66/116/92 70/120/96
f 71/121/97 67/117/93 63/113/89 69/119/95
f 72/122/98 73/123/99 74/124/100 75/125/101
f 76/126/102 72/122/98 75/125/101 77/127/103
f 78/128/104 79/129/105 73/123/99 72/122/98
f 80/130/106 78/128/104 72/122/98 76/126/102
f 81/131/107 82/132/108 65/133/109 64/114/110
f 83/134/111 81/131/107 64/114/110 68/135/112
f 75/136/113 74/137/114 82/132/108 81/131/107
f 77/138/115 75/136/113 81/131/107 83/134/111
f 84/139/116 83/140/117 68/118/118 67/141/119
f 85/142/120 84/139/116 67/141/119 71/143/121
f 76/144/122 77/145/123 83/140/117 84/139/116
f 80/130/124 76/144/122 84/139/116 85/142/120
f 86/146/125 85/147/126 71/148/127 69/149/128
f 87/150/129 86/146/125 69/149/128 70/151/130
f 78/128/131 80/152/132 85/147/126 86/146/125
f 79/153/133 78/128/131 86/146/125 87/150/129
f 88/154/134 87/155/135 70/156/136 66/157/137
f 82/158/138 88/154/134 66/157/137 65/115/139
f 73/159/140 79/129/141 87/155/135 88/154/134
f 74/160/142 73/159/140 88/154/134 82/158/138
f 89/161/143 90/162/144 91/163/145 92/164/146
f 93/165/147 94/166/148 90/162/144 89/161/143
f 95/167/149 89/161/143 92/164/146 96/168/150
f 97/169/151 93/165/147 89/161/143 95/167/149
f 98/170/152 99/171/153 100/172/154 101/173/155
f 102/174/156 98/170/152 101/173/155 103/175/157
f 104/176/158 105/177/159 99/171/153 98/170/152
f 106/178/160 104/176/158 98/170/152 102/174/156
f 107/179/161 108/180/162 91/181/163 90/162/164
f 109/182/165 107/179/161 90/162/164 94/183/166
f 101/184/167 100/185/168 108/180/162 107/179/161
f 103/186/169 101/184/167 107/179/161 109/182/165
f 110/187/170 109/188/171 94/166/172 93/189/173
f 111/190/174 110/187/170 93/189/173 97/191/175
f 102/192/176 103/193/177 109/188/171 110/187/170
f 106/178/178 102/192/176 110/187/170 111/190/174
f 112/194/179 111/195/180 97/196/181 95/197/182
f 113/198/183 112/194/179 95/197/182 96/199/184
f 104/176/185 106/200/186 111/195/180 112/194/179
f 105/201/187 104/176/185 112/194/179 113/198/183
f 114/202/188 113/203/189 96/204/190 92/205/191
f 108/206/192 114/202/188 92/205/191 91/163/193
f 99/207/194 105/177/195 113/203/189 114/202/188
f 100/208/196 99/207/194 114/202/188 108/206/192
