# Blender v2.79 (sub 0) OBJ File: ''
# www.blender.org
mtllib tree4.mtl
o tree1
v -0.276768 0.049778 0.297030
v -0.303408 0.040908 -0.252302
v 0.332660 0.020492 -0.227661
v 0.359300 0.007773 0.321671
v -0.212759 3.103046 0.268760
v -0.070906 3.091284 0.230843
v -0.038070 3.090016 0.108334
v -0.179924 3.099777 0.146251
v 0.026326 1.535044 0.237200
v -0.221078 1.556049 0.266730
v -0.197558 0.813156 0.229557
v 0.196088 0.780374 0.267154
v 0.052242 1.534630 0.023533
v 0.162960 0.783675 -0.072814
v -0.195162 1.549867 0.053063
v -0.230686 0.803675 -0.110410
v -0.060715 2.503564 0.272521
v -0.223345 2.517142 0.273865
v -0.163126 2.337158 0.213789
v 0.005887 2.323021 0.202910
v 0.026252 1.783267 0.194931
v -0.196459 1.802119 0.245562
v -0.059545 2.502337 0.132068
v 0.015322 2.321818 0.056944
v 0.070337 1.782507 0.002590
v -0.222175 2.513305 0.133411
v -0.153691 2.333146 0.067823
v -0.165982 3.135319 -0.991816
v 0.056729 3.113468 -1.052688
v 0.049100 3.143795 -1.321002
v -0.198304 3.135501 -1.254433
v -1.063221 2.841136 0.047851
v -1.029097 2.865644 -0.092603
v -1.223548 2.746803 -0.223128
v -1.255162 2.721917 -0.077163
v -0.152374 1.796613 0.053220
v 0.219508 2.592798 -0.715114
v 0.168134 2.672209 -0.536416
v 0.232344 2.240211 -0.344183
v 0.296726 2.078135 -0.466749
v -0.027896 2.624641 -0.703032
v 0.049322 2.090826 -0.423903
v 0.009633 2.251822 -0.322563
v -0.054577 2.696126 -0.518108
v 1.818052 3.575907 1.674470
v 2.383564 4.017980 1.085545
v 0.809576 4.031532 1.894376
v 2.454231 4.359577 -0.092650
v 1.369327 5.044762 0.789158
v 0.145865 4.205900 1.355307
v 1.887764 4.603942 -0.959542
v 1.075565 4.935307 -0.748063
v 0.183164 4.971583 -0.462662
v -0.171998 4.151067 0.402177
v 1.842404 2.860389 1.189876
v 0.202298 2.990601 1.372463
v 1.632067 2.082182 0.715958
v -0.512118 3.566560 0.105369
v -0.112502 2.615046 0.024758
v 1.304207 2.068292 -0.244013
v 2.792366 3.223543 0.186452
v 1.809171 2.883126 -0.873498
v 2.028920 3.620026 -1.091019
v 0.925293 3.757984 -1.448568
v 1.512480 3.418259 -0.922375
v 1.920230 3.098449 -1.023520
v 1.240419 3.730344 -1.412509
v 2.075675 2.511057 -1.368545
v 1.854565 3.220544 -1.849812
v 1.015235 3.551747 -1.817040
v 1.918337 2.155541 -1.832166
v 1.686211 2.419947 -2.205656
v 1.311194 2.689955 -2.471645
v 0.856553 3.074344 -2.089663
v 1.261046 3.049718 -0.715874
v 0.594978 3.372754 -1.297353
v 0.884532 2.707031 -0.562337
v 0.494506 2.871440 -2.025427
v 0.320125 2.636396 -1.514682
v 0.736484 2.233331 -0.856470
v 1.807104 2.448410 -0.733373
v 1.254308 1.955000 -1.138760
v 1.619600 1.920975 -1.406936
v 1.189688 1.889202 -1.912432
v -0.522500 5.194312 -1.906265
v 0.232540 4.938142 -2.353963
v -1.509536 4.987679 -2.372909
v 0.798461 3.943475 -2.747396
v -0.537096 4.304697 -3.408441
v -1.868670 4.238053 -2.591299
v 0.665569 2.948571 -3.048331
v -0.144166 2.810551 -3.387429
v -1.058013 2.686759 -3.435055
v -1.745510 3.254757 -2.595099
v -0.298038 4.733130 -1.226675
v -1.831700 4.206145 -1.393999
v -0.286848 4.178086 -0.491866
v -1.924038 2.812966 -2.045584
v -1.539404 2.855539 -1.102404
v -0.169457 3.186875 -0.536562
v 0.974488 4.268089 -1.606408
v 0.550869 2.890836 -1.354570
v 0.842161 2.834390 -2.083529
v 0.014899 2.056767 -2.269952
v -1.030143 4.590396 1.266151
v -0.452759 4.137537 1.122927
v -1.415389 5.032316 0.572109
v -0.232646 3.305774 0.634362
v -0.545743 4.310426 -0.047122
v -1.734255 4.779417 -0.000719
v -0.455440 2.802355 -0.022137
v -0.784136 3.176760 -0.551007
v -1.315169 3.559099 -0.927655
v -1.958953 4.103403 -0.386758
v -1.386180 4.068532 1.558563
v -2.329350 4.525958 0.735173
v -1.919334 3.583278 1.775972
v -2.471621 3.816087 -0.295799
v -2.718548 3.483257 0.427430
v -2.128974 2.912508 1.359471
v -0.612948 3.217065 1.533780
v -1.395721 2.518384 0.959743
v -0.878459 2.470202 0.579999
v -1.487225 2.425213 -0.135796
vt 0.813850 0.159591
vt 0.863273 0.155883
vt 0.863273 0.212850
vt 0.813773 0.216989
vt 0.205483 0.468611
vt 0.205471 0.455228
vt 0.215395 0.449453
vt 0.215395 0.462809
vt 0.849603 0.378874
vt 0.867814 0.377169
vt 0.862685 0.444718
vt 0.838916 0.447533
vt 0.961706 0.602207
vt 0.950307 0.607990
vt 0.924741 0.542695
vt 0.947726 0.534011
vt 0.976059 0.604893
vt 0.975664 0.535665
vt 0.934816 0.845224
vt 0.947640 0.846797
vt 0.957947 0.915449
vt 0.933078 0.912948
vt 0.859208 0.290820
vt 0.870067 0.289686
vt 0.862076 0.305920
vt 0.850208 0.307083
vt 0.847436 0.356195
vt 0.865309 0.354712
vt 0.930375 0.982076
vt 0.890370 0.985520
vt 0.906788 0.915590
vt 0.222842 0.343434
vt 0.228695 0.350738
vt 0.212474 0.358258
vt 0.206513 0.351184
vt 0.832682 0.355872
vt 0.834739 0.378489
vt 0.897789 0.476508
vt 0.933325 0.463057
vt 0.221470 0.332796
vt 0.205471 0.340632
vt 0.388208 0.658353
vt 0.409121 0.658985
vt 0.413751 0.683050
vt 0.390979 0.682265
vt 0.976059 0.465654
vt 0.388208 0.588221
vt 0.401131 0.589893
vt 0.406813 0.608595
vt 0.393496 0.606539
vt 0.804950 0.964645
vt 0.815687 0.953345
vt 0.832286 0.968795
vt 0.820975 0.980019
vt 0.968970 0.985520
vt 0.858334 0.237240
vt 0.870067 0.236328
vt 0.848621 0.237102
vt 0.850484 0.290663
vt 0.881322 0.431818
vt 0.870067 0.432664
vt 0.870801 0.379938
vt 0.880917 0.378595
vt 0.891456 0.432664
vt 0.890296 0.380098
vt 0.211172 0.241583
vt 0.228695 0.256181
vt 0.594091 0.812913
vt 0.607065 0.810481
vt 0.607065 0.918604
vt 0.593607 0.919717
vt 0.762640 0.774196
vt 0.747304 0.768057
vt 0.745038 0.695072
vt 0.762640 0.680790
vt 0.394791 0.505600
vt 0.406813 0.509661
vt 0.840598 0.306909
vt 0.776372 0.925843
vt 0.782259 0.916219
vt 0.825112 0.938911
vt 0.768883 0.933047
vt 0.780051 0.280645
vt 0.794583 0.273787
vt 0.801421 0.313443
vt 0.789341 0.327926
vt 0.795481 0.866962
vt 0.805012 0.853859
vt 0.832286 0.888232
vt 0.822668 0.903793
vt 0.805198 0.902363
vt 0.780821 0.873436
vt 0.810476 0.271781
vt 0.817497 0.312563
vt 0.211556 0.681721
vt 0.212580 0.615513
vt 0.224742 0.628861
vt 0.224832 0.681721
vt 0.189249 0.615513
vt 0.211556 0.618798
vt 0.190637 0.673435
vt 0.863273 0.163863
vt 0.884116 0.155883
vt 0.884116 0.203074
vt 0.863604 0.212231
vt 0.211659 0.846072
vt 0.225566 0.832033
vt 0.225566 0.898274
vt 0.213078 0.901420
vt 0.393714 0.611741
vt 0.413751 0.608595
vt 0.850547 0.354820
vt 0.139823 0.090890
vt 0.067287 0.133190
vt 0.146131 0.000000
vt 0.256440 0.034685
vt 0.357916 0.000000
vt 0.316056 0.126638
vt 0.012875 0.041974
vt 0.229877 0.192362
vt 0.295365 0.236328
vt 0.449367 0.027344
vt 0.455417 0.107167
vt 0.455417 0.192074
vt 0.174907 0.546328
vt 0.189249 0.683924
vt 0.137277 0.621656
vt 0.374946 0.933206
vt 0.414505 0.883524
vt 0.414505 0.994633
vt 0.189249 0.469128
vt 0.075226 0.499626
vt 0.229877 0.042160
vt 0.178277 0.151754
vt 0.229877 0.201611
vt 0.073165 0.638964
vt 0.000000 0.588102
vt 0.768883 0.701197
vt 0.890370 0.701373
vt 0.800499 0.853859
vt 0.890370 0.840121
vt 0.085210 0.241583
vt 0.000000 0.182938
vt 0.877890 0.957696
vt 0.832286 0.887022
vt 0.877890 0.853859
vt 0.225566 0.683924
vt 0.225566 0.832033
vt 0.145623 0.737906
vt 0.302996 0.505600
vt 0.388208 0.609977
vt 0.335880 0.636512
vt 0.229877 0.586283
vt 0.254847 0.677204
vt 0.568877 0.753802
vt 0.607065 0.672789
vt 0.607065 0.810481
vt 0.355953 0.730393
vt 0.231786 0.730393
vt 0.652188 0.463057
vt 0.768883 0.490911
vt 0.617346 0.529042
vt 0.978916 0.183241
vt 0.923516 0.097048
vt 0.978916 0.000000
vt 0.813773 0.155883
vt 0.914232 0.000000
vt 0.923516 0.155883
vt 0.768883 0.680790
vt 0.684193 0.664551
vt 0.192247 0.931787
vt 0.187819 0.973730
vt 0.144750 0.907537
vt 0.107068 0.970898
vt 0.047593 0.980360
vt 0.086195 0.916435
vt 0.112573 0.973730
vt 0.107068 0.893635
vt 0.000000 0.955660
vt 0.005925 0.911340
vt 0.014974 0.863697
vt 0.107068 0.853778
vt 0.870067 0.339417
vt 0.897053 0.241181
vt 0.902880 0.304113
vt 0.745038 0.827259
vt 0.766171 0.774196
vt 0.766171 0.851975
vt 0.150741 0.853778
vt 0.209907 0.912601
vt 0.700718 0.886388
vt 0.693701 0.971315
vt 0.668506 0.884735
vt 0.936166 0.312394
vt 0.918466 0.378595
vt 0.976768 0.337524
vt 0.620423 0.971315
vt 0.617346 0.892519
vt 0.980546 0.839535
vt 0.936185 0.839665
vt 0.980546 0.795054
vt 0.890370 0.845224
vt 0.919581 0.775161
vt 0.961525 0.736000
vt 0.227385 0.449453
vt 0.205471 0.411816
vt 0.227385 0.358258
vt 0.280717 0.730393
vt 0.281568 0.799255
vt 0.229877 0.802501
vt 0.275300 0.840039
vt 0.903366 0.721865
vt 0.949656 0.701197
vt 0.287663 0.883860
vt 0.330226 0.890509
vt 0.333509 0.845989
vt 0.374946 0.881122
vt 0.300547 0.745267
vt 0.374946 0.757213
vt 0.976768 0.236328
vt 0.553977 0.091993
vt 0.474427 0.110255
vt 0.589025 0.003401
vt 0.106824 0.469128
vt 0.072336 0.372506
vt 0.205471 0.382143
vt 0.455417 0.000000
vt 0.617346 0.533829
vt 0.583358 0.672789
vt 0.543987 0.540741
vt 0.077259 0.277781
vt 0.146556 0.254770
vt 0.205471 0.241583
vt 0.430061 0.672789
vt 0.461261 0.565783
vt 0.374946 0.818055
vt 0.406150 0.730393
vt 0.406150 0.883524
vt 0.539351 0.463057
vt 0.662681 0.058669
vt 0.576202 0.156461
vt 0.615037 0.212845
vt 0.417266 0.526246
vt 0.768883 0.463057
vt 0.897789 0.491078
vt 0.773292 0.546695
vt 0.896866 0.578683
vt 0.784281 0.701197
vt 0.874212 0.701197
vt 0.464616 0.212845
vt 0.000000 0.434799
vt 0.780051 0.236328
vt 0.780051 0.327251
vt 0.685834 0.365431
vt 0.628128 0.246089
vt 0.622687 0.377746
vt 0.005881 0.297066
vt 0.189249 0.550567
vt 0.226989 0.469128
vt 0.226989 0.615513
vt 0.673718 0.442317
vt 0.591600 1.000000
vt 0.535323 0.933170
vt 0.591600 0.852032
vt 0.417266 0.263640
vt 0.412373 0.372152
vt 0.343900 0.236328
vt 0.417266 0.457161
vt 0.328585 0.505600
vt 0.235012 0.423392
vt 0.229877 0.331996
vt 0.120616 0.794386
vt 0.114345 0.853778
vt 0.053359 0.760047
vt 0.568877 0.838634
vt 0.484658 0.852032
vt 0.539320 0.761512
vt 0.007795 0.853778
vt 0.000000 0.740362
vt 0.417266 0.817056
vt 0.425656 0.754298
vt 0.438469 0.686834
vt 0.568877 0.672789
vt 0.662681 0.145975
vt 0.700895 0.006871
vt 0.709145 0.095985
vt 0.700718 0.959873
vt 0.730643 0.884735
vt 0.730644 0.994872
vt 0.061842 0.683924
vt 0.145623 0.767218
vt 0.535323 0.854372
vt 0.525387 0.974630
vt 0.489710 0.852032
vt 0.756279 0.107711
vt 0.731215 0.201454
vt 0.813773 0.143296
vt 0.421623 0.974630
vt 0.417266 0.863053
vt 0.745038 0.876680
vt 0.682222 0.876865
vt 0.745038 0.813694
vt 0.617346 0.884735
vt 0.658710 0.785525
vt 0.718103 0.730072
vt 1.000000 0.974358
vt 0.968970 0.921064
vt 1.000000 0.845224
vt 0.489256 0.236328
vt 0.490462 0.333838
vt 0.417266 0.338435
vt 0.481586 0.391589
vt 0.635749 0.710056
vt 0.701297 0.680790
vt 0.499092 0.453640
vt 0.559362 0.463057
vt 0.564011 0.400014
vt 0.622687 0.449763
vt 0.517336 0.257389
vt 0.622687 0.274306
vt 0.813773 0.000000
vn -0.0490 -0.9988 -0.0011
vn 0.0762 0.9971 0.0019
vn -0.0131 -0.0065 0.9999
vn 0.9829 0.1836 -0.0118
vn 0.0218 0.1720 -0.9849
vn -0.9999 0.0063 0.0128
vn 0.0066 -0.3364 0.9417
vn 0.1765 0.1167 0.9774
vn -0.0547 0.0761 0.9956
vn 0.9349 0.3536 0.0316
vn 0.9854 -0.0141 0.1699
vn 0.9746 0.2153 -0.0616
vn -0.0102 0.3599 -0.9329
vn 0.0434 0.9976 0.0541
vn 0.0668 0.1945 -0.9786
vn -0.5353 0.8444 0.0228
vn -0.9770 0.1263 -0.1721
vn -0.9933 0.0957 0.0648
vn 0.1310 0.0394 0.9906
vn 0.9917 -0.0024 0.1283
vn -0.1280 -0.0023 -0.9918
vn -0.9906 0.0455 -0.1293
vn 0.3880 0.3856 -0.8371
vn -0.3176 -0.9416 -0.1120
vn -0.3641 -0.3687 0.8552
vn 0.3509 0.9296 0.1125
vn 0.1567 0.0200 0.9874
vn 0.9860 0.0599 0.1556
vn -0.1514 0.0553 -0.9869
vn -0.9872 0.0270 -0.1569
vn 0.9560 0.2285 0.1841
vn -0.1388 -0.4613 -0.8763
vn -0.9802 -0.1808 -0.0805
vn 0.1141 0.4160 0.9022
vn 0.9421 0.3307 0.0559
vn 0.9020 -0.0052 0.4318
vn -0.1385 -0.7497 -0.6471
vn -0.1477 -0.6204 -0.7702
vn -0.9709 -0.2345 0.0496
vn -0.9362 0.0916 -0.3393
vn 0.1892 0.7545 0.6284
vn 0.1632 0.5760 0.8010
vn 0.3967 0.5096 0.7635
vn 0.6529 0.7161 0.2468
vn 0.3762 0.5802 0.7224
vn -0.2642 0.7739 0.5756
vn 0.3804 0.9247 0.0121
vn 0.4399 0.8859 -0.1471
vn 0.0168 0.9971 -0.0742
vn -0.4166 0.8408 0.3456
vn -0.7829 0.5790 0.2278
vn -0.0736 -0.5610 0.8246
vn -0.6333 -0.0185 0.7737
vn 0.0600 -0.4752 0.8779
vn 0.0522 -0.5297 0.8466
vn -0.8852 0.3762 0.2736
vn -0.8771 -0.0340 0.4791
vn -0.8665 -0.3903 0.3112
vn -0.3931 -0.8579 0.3309
vn -0.3358 -0.9332 0.1282
vn 0.7920 -0.3236 0.5176
vn 0.7133 -0.4950 0.4962
vn 0.7449 -0.2943 0.5987
vn 0.9374 0.3153 0.1476
vn 0.7309 -0.6387 -0.2404
vn 0.5914 -0.7447 -0.3094
vn 0.7352 -0.3841 -0.5586
vn 0.8685 0.1418 -0.4750
vn 0.8456 0.1881 -0.4996
vn -0.2126 0.0994 -0.9721
vn 0.2506 -0.3421 -0.9056
vn 0.3255 0.4524 -0.8303
vn -0.2412 0.5188 -0.8202
vn -0.3287 -0.4413 -0.8350
vn -0.2279 -0.6851 -0.6919
vn -0.6986 -0.2362 -0.6754
vn -0.7366 0.0937 -0.6698
vn -0.8792 0.4690 0.0839
vn 0.6320 0.7631 0.1351
vn 0.9607 0.2752 -0.0357
vn 0.6617 0.7475 0.0579
vn 0.2962 0.8019 -0.5189
vn 0.8864 0.1696 -0.4308
vn 0.9068 -0.0033 -0.4215
vn 0.6546 0.1878 -0.7323
vn 0.2226 0.6370 -0.7380
vn -0.2264 0.5387 -0.8115
vn -0.4170 0.6439 0.6415
vn -0.4962 0.8619 -0.1044
vn -0.2595 0.6869 0.6788
vn -0.3005 0.6450 0.7026
vn -0.4352 0.5512 -0.7119
vn -0.6929 0.6350 -0.3416
vn -0.9142 0.3815 -0.1366
vn -0.8529 0.1730 0.4926
vn -0.8576 -0.0499 0.5119
vn 0.3981 0.2265 0.8889
vn 0.2276 0.1788 0.9572
vn 0.3810 0.3208 0.8672
vn 0.9205 0.0142 0.3906
vn 0.1482 -0.5547 0.8187
vn -0.0269 -0.6164 0.7870
vn 0.3151 -0.7878 0.5292
vn 0.7557 -0.6010 0.2603
vn 0.7680 -0.6069 0.2047
vn -0.0992 -0.8402 -0.5331
vn -0.0288 -0.9958 0.0871
vn 0.5399 -0.7334 -0.4131
vn 0.1489 -0.5813 -0.8000
vn -0.5361 -0.8274 -0.1676
vn -0.6157 -0.7792 0.1177
vn -0.6871 -0.5419 -0.4840
vn -0.5038 -0.4419 -0.7423
vn -0.3710 0.3960 -0.8400
vn 0.0302 0.8887 -0.4575
vn 0.4856 0.5462 -0.6825
vn 0.0299 0.8471 -0.5306
vn -0.4833 0.4503 -0.7508
vn 0.3423 0.2298 -0.9110
vn 0.4646 0.1098 -0.8787
vn 0.0521 -0.0003 -0.9986
vn -0.5209 0.1814 -0.8341
vn -0.8016 -0.0981 -0.5898
vn -0.4255 0.6773 0.6002
vn -0.9056 0.4224 0.0392
vn -0.3276 0.7880 0.5213
vn -0.3214 0.7532 0.5739
vn -0.9147 -0.1131 -0.3881
vn -0.9982 0.0511 0.0322
vn -0.9178 -0.1167 0.3795
vn -0.5017 0.0774 0.8616
vn -0.3628 -0.0848 0.9280
vn 0.4889 0.7883 0.3735
vn 0.4264 0.7249 0.5411
vn 0.4115 0.8428 0.3470
vn 0.7831 0.5559 -0.2790
vn 0.7599 0.0608 0.6472
vn 0.6633 -0.0678 0.7452
vn 0.9025 -0.2087 0.3768
vn 0.9892 -0.0447 -0.1399
vn 0.9794 -0.0739 -0.1880
vn 0.2290 -0.9609 -0.1556
vn 0.6158 -0.7276 0.3024
vn 0.6546 -0.5802 -0.4846
vn 0.1395 -0.8116 -0.5673
vn 0.0623 -0.9197 0.3877
vn 0.0902 -0.7619 0.6414
vn -0.3393 -0.9233 0.1800
vn -0.3743 -0.9151 -0.1502
vn -0.8268 -0.2757 -0.4903
vn -0.9142 0.3815 -0.1365
vn -0.8529 0.1729 0.4926
usemtl Material.002
s off
f 1/1/1 2/2/1 3/3/1 4/4/1
f 5/5/2 6/6/2 7/7/2 8/8/2
f 9/9/3 10/10/3 11/11/3 12/12/3
f 13/13/4 9/14/4 12/15/4 14/16/4
f 15/17/5 13/13/5 14/16/5 16/18/5
f 10/19/6 15/20/6 16/21/6 11/22/6
f 17/23/7 18/24/7 19/25/7 20/26/7
f 21/27/8 22/28/8 10/10/8 9/9/8
f 1/29/9 4/30/9 12/31/9 11/22/9
f 23/32/10 17/33/10 20/34/10 24/35/10
f 25/36/11 21/27/11 9/9/11 13/37/11
f 4/38/12 3/39/12 14/16/12 12/15/12
f 26/40/13 23/32/13 24/35/13 27/41/13
f 28/42/14 29/43/14 30/44/14 31/45/14
f 3/39/15 2/46/15 16/18/15 14/16/15
f 32/47/16 33/48/16 34/49/16 35/50/16
f 22/51/17 36/52/17 15/53/17 10/54/17
f 2/55/18 1/29/18 11/22/18 16/21/18
f 6/56/19 5/57/19 18/24/19 17/23/19
f 7/58/20 6/56/20 17/23/20 23/59/20
f 8/60/21 7/61/21 23/62/21 26/63/21
f 5/64/22 8/60/22 26/63/22 18/65/22
f 26/40/23 27/41/23 34/66/23 33/67/23
f 27/68/24 19/69/24 35/70/24 34/71/24
f 19/72/25 18/73/25 32/74/25 35/75/25
f 18/76/26 26/77/26 33/48/26 32/47/26
f 20/26/27 19/25/27 22/28/27 21/27/27
f 24/78/28 20/26/28 21/27/28 25/36/28
f 27/79/29 24/80/29 25/81/29 36/52/29
f 19/82/30 27/79/30 36/52/30 22/51/30
f 37/83/31 38/84/31 39/85/31 40/86/31
f 41/87/32 37/88/32 40/89/32 42/90/32
f 43/91/33 44/92/33 41/87/33 42/90/33
f 38/84/34 44/93/34 43/94/34 39/85/34
f 37/95/35 30/96/35 29/97/35 38/98/35
f 25/36/36 13/37/36 40/86/36 39/85/36
f 31/99/37 30/100/37 37/95/37 41/101/37
f 13/102/38 15/103/38 42/104/38 40/105/38
f 28/106/39 31/107/39 41/108/39 44/109/39
f 42/90/40 15/53/40 36/52/40 43/91/40
f 29/43/41 28/42/41 44/110/41 38/111/41
f 36/112/42 25/36/42 39/85/42 43/94/42
s 1
f 45/113/43 46/114/43 47/115/43
f 46/116/44 48/117/44 49/118/44
f 46/114/45 49/119/45 47/115/45
f 47/120/46 49/118/46 50/121/46
f 48/117/47 51/122/47 52/123/47
f 48/117/48 52/123/48 49/118/48
f 49/118/49 52/123/49 53/124/49
f 49/118/50 53/124/50 50/121/50
f 50/125/51 53/126/51 54/127/51
f 45/128/52 47/129/52 55/130/52
f 47/131/53 50/125/53 56/132/53
f 47/115/54 56/133/54 55/134/54
f 55/134/55 56/133/55 57/135/55
f 50/125/56 54/127/56 58/136/56
f 50/125/57 58/136/57 56/132/57
f 56/132/58 58/136/58 59/137/58
f 56/138/59 59/139/59 57/140/59
f 57/140/60 59/139/60 60/141/60
f 45/113/61 55/134/61 46/114/61
f 55/134/62 57/135/62 61/142/62
f 55/134/63 61/142/63 46/114/63
f 46/114/64 61/142/64 48/143/64
f 57/144/65 60/145/65 62/146/65
f 57/147/66 62/148/66 61/149/66
f 61/150/67 62/151/67 63/152/67
f 61/150/68 63/152/68 48/153/68
f 48/153/69 63/152/69 51/154/69
f 51/155/70 63/156/70 52/157/70
f 63/152/71 62/151/71 64/158/71
f 63/152/72 64/158/72 52/159/72
f 52/160/73 64/161/73 53/162/73
f 62/163/74 60/164/74 59/165/74
f 62/166/75 59/167/75 64/168/75
f 64/161/76 59/169/76 58/170/76
f 64/161/77 58/170/77 53/162/77
f 53/126/78 58/136/78 54/127/78
f 65/171/79 66/172/79 67/173/79
f 66/174/80 68/175/80 69/176/80
f 66/172/81 69/177/81 67/173/81
f 67/173/82 69/177/82 70/178/82
f 68/175/83 71/179/83 72/180/83
f 68/175/84 72/180/84 69/176/84
f 69/176/85 72/180/85 73/181/85
f 69/176/86 73/181/86 70/182/86
f 70/183/87 73/184/87 74/185/87
f 65/186/88 67/187/88 75/188/88
f 67/173/89 70/178/89 76/189/89
f 67/173/90 76/189/90 75/190/90
f 75/191/91 76/192/91 77/193/91
f 70/183/92 74/185/92 78/194/92
f 70/183/93 78/194/93 76/195/93
f 76/195/94 78/194/94 79/196/94
f 76/192/95 79/197/95 77/193/95
f 77/193/96 79/197/96 80/198/96
f 65/199/97 75/200/97 66/201/97
f 75/200/98 77/202/98 81/203/98
f 75/200/99 81/203/99 66/201/99
f 66/201/100 81/203/100 68/204/100
f 77/205/101 80/206/101 82/207/101
f 77/208/102 82/209/102 81/210/102
f 81/210/103 82/209/103 83/211/103
f 81/203/104 83/212/104 68/204/104
f 68/204/105 83/212/105 71/213/105
f 71/214/106 83/211/106 72/215/106
f 83/211/107 82/209/107 84/216/107
f 83/211/108 84/216/108 72/215/108
f 72/215/109 84/216/109 73/217/109
f 82/209/110 80/218/110 79/219/110
f 82/209/111 79/219/111 84/216/111
f 84/220/112 79/196/112 78/194/112
f 84/220/113 78/194/113 73/184/113
f 73/184/114 78/194/114 74/185/114
f 85/221/115 86/222/115 87/223/115
f 86/224/116 88/225/116 89/226/116
f 86/222/117 89/227/117 87/223/117
f 87/228/118 89/229/118 90/230/118
f 88/225/119 91/231/119 92/232/119
f 88/225/120 92/232/120 89/226/120
f 89/226/121 92/232/121 93/233/121
f 89/229/122 93/234/122 90/230/122
f 90/230/123 93/234/123 94/235/123
f 85/236/124 87/237/124 95/238/124
f 87/228/125 90/230/125 96/239/125
f 87/223/126 96/240/126 95/241/126
f 95/241/127 96/240/127 97/242/127
f 90/230/128 94/235/128 98/243/128
f 90/244/129 98/245/129 96/246/129
f 96/246/130 98/245/130 99/247/130
f 96/246/131 99/247/131 97/248/131
f 97/248/132 99/247/132 100/249/132
f 85/221/133 95/241/133 86/222/133
f 95/241/134 97/242/134 101/250/134
f 95/241/135 101/250/135 86/222/135
f 86/224/136 101/251/136 88/225/136
f 97/252/137 100/253/137 102/254/137
f 97/252/138 102/254/138 101/255/138
f 101/255/139 102/254/139 103/256/139
f 101/251/140 103/257/140 88/225/140
f 88/225/141 103/257/141 91/231/141
f 91/258/142 103/259/142 92/260/142
f 103/256/143 102/254/143 104/261/143
f 103/262/144 104/263/144 92/264/144
f 92/265/145 104/266/145 93/267/145
f 102/268/146 100/269/146 99/270/146
f 102/268/147 99/270/147 104/266/147
f 104/266/148 99/270/148 98/271/148
f 104/266/149 98/271/149 93/267/149
f 93/234/150 98/243/150 94/235/150
f 105/272/79 106/273/79 107/274/79
f 106/275/80 108/276/80 109/277/80
f 106/273/81 109/278/81 107/274/81
f 107/274/82 109/278/82 110/279/82
f 108/276/83 111/280/83 112/281/83
f 108/276/84 112/281/84 109/277/84
f 109/277/85 112/281/85 113/282/85
f 109/277/86 113/282/86 110/283/86
f 110/284/87 113/285/87 114/286/87
f 105/287/88 107/288/88 115/289/88
f 107/274/89 110/279/89 116/290/89
f 107/274/90 116/290/90 115/291/90
f 115/292/91 116/293/91 117/294/91
f 110/284/92 114/286/92 118/295/92
f 110/284/93 118/295/93 116/296/93
f 116/296/151 118/295/151 119/297/151
f 116/293/152 119/298/152 117/294/152
f 117/294/96 119/298/96 120/299/96
f 105/300/97 115/301/97 106/302/97
f 115/301/98 117/303/98 121/304/98
f 115/301/99 121/304/99 106/302/99
f 106/302/100 121/304/100 108/305/100
f 117/306/101 120/307/101 122/308/101
f 117/309/102 122/310/102 121/311/102
f 121/311/103 122/310/103 123/312/103
f 121/304/104 123/313/104 108/305/104
f 108/305/105 123/313/105 111/314/105
f 111/315/106 123/312/106 112/316/106
f 123/312/107 122/310/107 124/317/107
f 123/312/108 124/317/108 112/316/108
f 112/316/109 124/317/109 113/318/109
f 122/310/110 120/319/110 119/320/110
f 122/310/111 119/320/111 124/317/111
f 124/321/112 119/297/112 118/295/112
f 124/321/113 118/295/113 113/285/113
f 113/285/114 118/295/114 114/286/114
